<svg width="128" height="35" viewBox="0 0 128 35" fill="none" xmlns="http://www.w3.org/2000/svg">
<path d="M7.78303 8.27813L18.9236 3.03369L23.5478 5.93562L24.7692 12.2289L17.4057 15.7952C15.8184 16.5671 13.9869 16.684 12.3127 16.1203C10.6386 15.5567 9.2584 14.3584 8.4749 12.7884C8.39018 12.6135 8.31253 12.4387 8.24193 12.2569C7.84658 11.25 7.48652 10.334 7.2253 9.68365C7.11726 9.42335 7.11497 9.13177 7.2189 8.86984C7.32284 8.60791 7.52497 8.39591 7.78303 8.27813V8.27813Z" fill="url(#paint0_linear_484_287)"/>
<path d="M29.8247 27.6554L18.5289 32.5991L13.9611 29.5853L12.9092 23.292L20.3927 19.9076C21.1886 19.5459 22.0486 19.3431 22.9237 19.3107C23.7987 19.2784 24.6716 19.4172 25.4925 19.7192C26.3134 20.0211 27.0661 20.4804 27.7077 21.0706C28.3493 21.6609 28.8672 22.3706 29.2317 23.1592C29.3164 23.334 29.387 23.5088 29.4576 23.6906C29.8177 24.7115 30.1636 25.6415 30.3966 26.2918C30.4895 26.5489 30.4824 26.8309 30.3767 27.0831C30.2709 27.3352 30.0742 27.5392 29.8247 27.6554V27.6554Z" fill="url(#paint1_linear_484_287)"/>
<path d="M5.14305 28.8227L0.0175557 3.00608C-0.0289539 2.76404 0.0177213 2.51351 0.148389 2.30385C0.279056 2.09419 0.484244 1.94058 0.723547 1.87328L2.13553 1.45373C4.08095 0.872059 6.17988 1.0784 7.9719 2.02748C9.76393 2.97656 11.1027 4.59089 11.6947 6.51637C11.7696 6.74569 11.8309 6.97918 11.8782 7.21563L16.1142 28.2563C16.4884 29.9018 17.3313 31.4064 18.5428 32.5917L16.6225 33.4588C15.5878 34.0575 14.4281 34.4126 13.2328 34.4965C12.0375 34.5805 10.8388 34.3911 9.72918 33.943C8.6196 33.4948 7.6289 32.8 6.83368 31.9122C6.03847 31.0243 5.46002 29.9673 5.14305 28.8227V28.8227Z" fill="url(#paint2_linear_484_287)"/>
<path d="M32.4221 6.46055L38.2465 32.1304C38.3028 32.371 38.2659 32.6238 38.143 32.8388C38.0201 33.0537 37.8202 33.2152 37.5829 33.2911L36.1709 33.7526C34.2404 34.386 32.1351 34.2352 30.3166 33.3333C28.4982 32.4314 27.1151 30.8522 26.4706 28.9417C26.3916 28.7125 26.3256 28.479 26.2729 28.2425L21.4439 7.32064C21.0272 5.68484 20.145 4.20194 18.9023 3.04817L20.7803 2.12515C21.8003 1.49265 22.9539 1.10177 24.1513 0.982938C25.3487 0.864104 26.5577 1.02051 27.6841 1.44C28.8106 1.85948 29.8241 2.53073 30.6459 3.40151C31.4676 4.27229 32.0755 5.31912 32.4221 6.46055V6.46055Z" fill="url(#paint3_linear_484_287)"/>
<path d="M50.5391 22.2915H55.4104V24.5851H47.5527V10.0405H50.5108L50.5391 22.2915Z" fill="#FFFFFF"/>
<path d="M68.0829 19.6909H59.5546C59.5816 20.4336 59.9009 21.1363 60.4441 21.6489C60.9678 22.1208 61.6568 22.3717 62.3644 22.3481C62.8519 22.3763 63.3366 22.2578 63.7549 22.0082C64.1732 21.7586 64.5056 21.3896 64.7083 20.9496H67.8994C67.5725 22.0491 66.8905 23.012 65.9579 23.6907C64.9364 24.4314 63.6932 24.8106 62.428 24.7676C61.3681 24.7866 60.3217 24.5311 59.3922 24.0264C58.4954 23.5458 57.7594 22.8169 57.2742 21.9286C56.7572 20.9654 56.4995 19.8865 56.5259 18.7959C56.4903 17.7049 56.7331 16.6226 57.2319 15.6492C57.7033 14.7651 58.4246 14.0362 59.3075 13.5515C60.2459 13.0792 61.2836 12.833 62.3362 12.833C63.3888 12.833 64.4265 13.0792 65.3649 13.5515C66.2285 14.0141 66.9392 14.7132 67.4123 15.5653C68.0553 16.8406 68.2799 18.283 68.0547 19.6909H68.0829ZM65.1037 17.726C65.1104 17.3834 65.0397 17.0436 64.8968 16.7314C64.7538 16.4193 64.5423 16.1427 64.2777 15.9219C63.7332 15.4566 63.034 15.2074 62.315 15.2227C61.6319 15.2185 60.9719 15.468 60.4653 15.9219C59.945 16.3992 59.6186 17.0482 59.5475 17.747L65.1037 17.726Z" fill="#FFFFFF"/>
<path d="M70.2705 15.6774C70.6997 14.8117 71.368 14.0843 72.1979 13.5797C73.0176 13.0997 73.9569 12.8574 74.9089 12.8804C75.7053 12.8608 76.494 13.0387 77.2033 13.3979C77.8199 13.7153 78.3576 14.1643 78.7777 14.7125V13.0412H81.757V24.586H78.7777V22.8938C78.3745 23.4664 77.8333 23.9302 77.2033 24.2434C76.4913 24.6102 75.6972 24.793 74.8948 24.7748C73.9418 24.7882 73.0052 24.5284 72.1979 24.0266C71.3738 23.5151 70.7071 22.7895 70.2705 21.9288C69.7875 20.9499 69.5455 19.8716 69.5645 18.7821C69.5455 17.7062 69.7876 16.6414 70.2705 15.6774V15.6774ZM78.3682 17.006C78.0994 16.5136 77.6956 16.1064 77.2033 15.8313C76.7351 15.5647 76.2044 15.4248 75.6643 15.4257C75.1208 15.4193 74.586 15.5607 74.118 15.8344C73.6499 16.1081 73.2666 16.5037 73.0098 16.9781C72.7103 17.5321 72.5619 18.1539 72.5791 18.7821C72.5653 19.4189 72.7133 20.049 73.0098 20.6142C73.2782 21.1046 73.6791 21.5113 74.1676 21.789C74.6211 22.0674 75.1449 22.2128 75.6784 22.2085C76.2185 22.2094 76.7492 22.0695 77.2175 21.8029C77.7026 21.5256 78.099 21.1185 78.3612 20.6282C78.6388 20.0591 78.783 19.4352 78.783 18.8031C78.783 18.1711 78.6388 17.5472 78.3612 16.9781L78.3682 17.006Z" fill="#FFFFFF"/>
<path d="M84.6033 15.6768C85.0325 14.8212 85.6984 14.104 86.5234 13.6088C87.3483 13.1136 88.2983 12.8607 89.2628 12.8797C90.0185 12.8728 90.7654 13.0404 91.4443 13.3692C92.0941 13.6625 92.6595 14.112 93.0893 14.6768V9.15967H96.0897V24.5853H93.0893V22.8791C92.711 23.4726 92.1797 23.9554 91.5502 24.2776C90.8373 24.6415 90.0434 24.8219 89.2416 24.8021C88.2894 24.8093 87.3546 24.5499 86.5447 24.0539C85.7185 23.5428 85.0495 22.8173 84.6103 21.9561C84.1242 20.9783 83.882 19.8992 83.9043 18.8094C83.8716 17.724 84.1118 16.6475 84.6033 15.6768V15.6768ZM92.7363 17.0054C92.4746 16.5258 92.0859 16.1259 91.612 15.8487C91.138 15.5715 90.5968 15.4274 90.0464 15.432C89.5144 15.4273 88.9907 15.5624 88.5286 15.8236C88.0546 16.1042 87.6646 16.5049 87.399 16.9844C87.102 17.5393 86.9537 18.1605 86.9683 18.7885C86.9545 19.4253 87.1026 20.0553 87.399 20.6205C87.6588 21.097 88.0381 21.4991 88.5003 21.7883C88.9563 22.0609 89.4785 22.2059 90.0112 22.2078C90.5533 22.2077 91.0861 22.0679 91.5573 21.8023C92.0392 21.5209 92.4346 21.1148 92.701 20.6275C92.9786 20.0584 93.1227 19.4345 93.1227 18.8025C93.1227 18.1704 92.9786 17.5465 92.701 16.9774L92.7363 17.0054Z" fill="#FFFFFF"/>
<path d="M114.099 10.1597V24.5854H112.172V13.8378L107.315 24.5854H105.966L101.081 13.8168V24.5854H99.1533V10.1737H101.208L106.616 22.117L112.031 10.1737L114.099 10.1597Z" fill="#FFFFFF"/>
<path d="M127.859 19.5999H118.596C118.598 20.0849 118.698 20.5646 118.891 21.0102C119.085 21.4558 119.367 21.8582 119.721 22.1932C120.075 22.5282 120.494 22.7889 120.952 22.9597C121.41 23.1305 121.898 23.2078 122.388 23.1871C123.138 23.2179 123.878 23.0149 124.506 22.6067C125.054 22.2366 125.466 21.6988 125.678 21.0754H127.746C127.455 22.1504 126.802 23.0951 125.896 23.7535C124.876 24.4773 123.642 24.8439 122.388 24.7954C121.359 24.8204 120.342 24.5794 119.437 24.0962C118.565 23.6077 117.857 22.8788 117.396 21.9984C116.901 21.0387 116.658 19.9709 116.69 18.8937C116.664 17.8148 116.907 16.7462 117.396 15.782C117.853 14.9146 118.558 14.1997 119.422 13.7261C120.341 13.2427 121.369 13.0019 122.409 13.0269C123.428 13.0003 124.437 13.2415 125.332 13.7261C126.161 14.177 126.842 14.8541 127.294 15.6771C127.762 16.5362 128.005 17.4979 128 18.4741C127.93 18.8447 127.901 19.2223 127.859 19.5999ZM125.452 16.1945C125.137 15.6802 124.678 15.2673 124.131 15.0058C123.556 14.7271 122.922 14.5858 122.282 14.5932C121.369 14.5777 120.486 14.9079 119.811 15.5163C119.099 16.1806 118.676 17.0936 118.632 18.0616H125.918C125.945 17.4079 125.784 16.7601 125.452 16.1945V16.1945Z" fill="#FFFFFF"/>
<defs>
<linearGradient id="paint0_linear_484_287" x1="33.0752" y1="13.7298" x2="16.6485" y2="24.3059" gradientUnits="userSpaceOnUse">
<stop offset="0.09" stop-color="#484FE4"/>
<stop offset="1" stop-color="#377EFF"/>
</linearGradient>
<linearGradient id="paint1_linear_484_287" x1="12.849" y1="34.7366" x2="29.6354" y2="24.6594" gradientUnits="userSpaceOnUse">
<stop offset="0.23" stop-color="#5E64FF"/>
<stop offset="1" stop-color="#985CD0"/>
</linearGradient>
<linearGradient id="paint2_linear_484_287" x1="3.66301" y1="2.33367" x2="11.7086" y2="35.2083" gradientUnits="userSpaceOnUse">
<stop stop-color="#6F64FF"/>
<stop offset="1" stop-color="#CA5CD0"/>
</linearGradient>
<linearGradient id="paint3_linear_484_287" x1="38.2807" y1="38.4357" x2="24.7348" y2="4.80474" gradientUnits="userSpaceOnUse">
<stop offset="0.09" stop-color="#484FE4"/>
<stop offset="1" stop-color="#00E8FF"/>
</linearGradient>
</defs>
</svg>
