<svg width="24" height="24" viewBox="0 0 24 24" fill="none" xmlns="http://www.w3.org/2000/svg">
<circle cx="12" cy="12" r="11.25" stroke="#777777" stroke-width="1.5"/>
<path d="M11.9709 5.40039C12.7986 5.40039 13.5293 5.56869 14.1631 5.9053C14.8097 6.2419 15.3076 6.72662 15.6568 7.35944C16.0189 7.97879 16.2 8.69913 16.2 9.52045C16.2 10.9746 15.7667 12.045 14.9002 12.7317C14.0467 13.4049 12.8762 13.7415 11.3889 13.7415L11.3307 15.9631H10.1667L10.0891 12.7317H10.5935C11.9256 12.7317 12.9732 12.5162 13.7363 12.0854C14.5122 11.6411 14.9002 10.7861 14.9002 9.52045C14.9002 8.63181 14.6286 7.92493 14.0855 7.39983C13.5552 6.87472 12.8503 6.61217 11.9709 6.61217C11.0915 6.61217 10.3931 6.86126 9.87575 7.35944C9.35843 7.85761 9.09977 8.53756 9.09977 9.39927H7.8C7.8 8.59141 7.9746 7.89127 8.32379 7.29885C8.68592 6.69296 9.17737 6.22844 9.79816 5.9053C10.4319 5.56869 11.1561 5.40039 11.9709 5.40039ZM10.7487 19.8004C10.4642 19.8004 10.2249 19.6994 10.031 19.4974C9.84989 19.2955 9.75936 19.0464 9.75936 18.7502C9.75936 18.454 9.84989 18.2116 10.031 18.0231C10.2249 17.8211 10.4642 17.7202 10.7487 17.7202C11.0203 17.7202 11.2467 17.8211 11.4277 18.0231C11.6217 18.2116 11.7187 18.454 11.7187 18.7502C11.7187 19.0464 11.6217 19.2955 11.4277 19.4974C11.2467 19.6994 11.0203 19.8004 10.7487 19.8004Z" fill="#777777"/>
</svg>
