<svg width="52" height="51" viewBox="0 0 52 51" fill="none" xmlns="http://www.w3.org/2000/svg">
    <path d="M10.6748 11.2718L25.9552 3.49707L32.2977 7.79908L33.973 17.1286L23.8732 22.4156C21.6961 23.5599 19.184 23.7332 16.8877 22.8975C14.5915 22.062 12.6984 20.2856 11.6238 17.9581C11.5076 17.6988 11.4011 17.4397 11.3043 17.1702C10.762 15.6775 10.2681 14.3195 9.90985 13.3554C9.76166 12.9695 9.75852 12.5373 9.90107 12.149C10.0436 11.7607 10.3209 11.4464 10.6748 11.2718Z" fill="url(#paint0_linear_3017_10705)"/>
    <path d="M40.9073 39.9986L25.414 47.3275L19.1488 42.8596L17.7061 33.53L27.9704 28.5128C29.062 27.9766 30.2416 27.6759 31.4419 27.6279C32.642 27.58 33.8393 27.7858 34.9652 28.2335C36.0912 28.681 37.1236 29.3619 38.0036 30.2369C38.8836 31.112 39.594 32.1641 40.0939 33.3331C40.2101 33.5923 40.3069 33.8514 40.4037 34.1209C40.8977 35.6344 41.3721 37.0131 41.6917 37.9771C41.8191 38.3583 41.8094 38.7763 41.6644 39.1502C41.5193 39.5239 41.2495 39.8263 40.9073 39.9986Z" fill="url(#paint1_linear_3017_10705)"/>
    <path d="M7.05418 41.7291L0.0240793 3.45692C-0.039713 3.09811 0.0243064 2.7267 0.203529 2.41589C0.382752 2.10508 0.664186 1.87736 0.992413 1.77759L2.92908 1.15562C5.59741 0.293311 8.47629 0.599204 10.9342 2.00618C13.3922 3.41316 15.2284 5.80635 16.0404 8.6608C16.1431 9.00076 16.2272 9.3469 16.2921 9.69743L22.1021 40.8895C22.6154 43.3289 23.7715 45.5594 25.4332 47.3166L22.7993 48.602C21.3801 49.4896 19.7895 50.016 18.15 50.1403C16.5106 50.2649 14.8664 49.9841 13.3445 49.3198C11.8226 48.6554 10.4638 47.6254 9.37304 46.3092C8.28233 44.9929 7.48893 43.426 7.05418 41.7291Z" fill="url(#paint2_linear_3017_10705)"/>
    <path d="M44.4699 8.57701L52.4587 46.6317C52.5359 46.9883 52.4853 47.3631 52.3167 47.6818C52.1481 48.0004 51.874 48.2398 51.5485 48.3523L49.6118 49.0365C46.9639 49.9755 44.0763 49.7519 41.5821 48.4149C39.088 47.0779 37.1909 44.7368 36.3069 41.9045C36.1986 41.5647 36.108 41.2186 36.0357 40.868L29.4123 9.85206C28.8408 7.42705 27.6307 5.2287 25.9263 3.51828L28.5021 2.14993C29.9011 1.21227 31.4834 0.632806 33.1258 0.456641C34.7681 0.280474 36.4264 0.512341 37.9713 1.13422C39.5164 1.75608 40.9065 2.75119 42.0337 4.04209C43.1608 5.33299 43.9946 6.88488 44.4699 8.57701Z" fill="url(#paint3_linear_3017_10705)"/>
    <defs>
        <linearGradient id="paint0_linear_3017_10705" x1="45.3654" y1="19.3537" x2="21.8421" y2="33.3662" gradientUnits="userSpaceOnUse">
            <stop offset="0.09" stop-color="#484FE4"/>
            <stop offset="1" stop-color="#377EFF"/>
        </linearGradient>
        <linearGradient id="paint1_linear_3017_10705" x1="17.6235" y1="50.4962" x2="41.5606" y2="37.201" gradientUnits="userSpaceOnUse">
            <stop offset="0.23" stop-color="#5E64FF"/>
            <stop offset="1" stop-color="#985CD0"/>
        </linearGradient>
        <linearGradient id="paint2_linear_3017_10705" x1="5.02416" y1="2.4601" x2="17.7942" y2="50.7367" gradientUnits="userSpaceOnUse">
            <stop stop-color="#6F64FF"/>
            <stop offset="1" stop-color="#CA5CD0"/>
        </linearGradient>
        <linearGradient id="paint3_linear_3017_10705" x1="52.5056" y1="55.979" x2="31.2989" y2="7.26605" gradientUnits="userSpaceOnUse">
            <stop offset="0.09" stop-color="#484FE4"/>
            <stop offset="1" stop-color="#00E8FF"/>
        </linearGradient>
    </defs>
</svg>
