<svg width="15" height="14" viewBox="0 0 15 14" fill="none" xmlns="http://www.w3.org/2000/svg">
<path d="M0 6.61687L3.74968 9.55771V7.35208H10.4991V5.88166H3.74968V3.67603L0 6.61687Z" fill="white"/>
<path d="M8.25013 2.52627e-05C7.36335 -0.00238527 6.4849 0.167735 5.66566 0.50053C4.84642 0.833326 4.10269 1.32218 3.47754 1.93878L4.53795 2.97837C5.52936 2.00642 6.84775 1.47045 8.25013 1.47045C9.65251 1.47045 10.9709 2.00642 11.9623 2.97837C12.9537 3.95031 13.5004 5.24282 13.5004 6.61766C13.5004 7.99251 12.9537 9.28501 11.9623 10.257C10.9709 11.2289 9.65251 11.7649 8.25013 11.7649C6.84775 11.7649 5.52936 11.2289 4.53795 10.257L3.47754 11.2965C4.75168 12.5464 6.44653 13.2353 8.25013 13.2353C10.0537 13.2353 11.7486 12.5464 13.0227 11.2965C14.2976 10.0474 15.0003 8.38584 15.0003 6.61766C15.0003 4.84948 14.2976 3.1879 13.0227 1.93878C12.3976 1.32218 11.6538 0.833326 10.8346 0.50053C10.0154 0.167735 9.13691 -0.00238527 8.25013 2.52627e-05Z" fill="white"/>
</svg>
