<svg width="15" height="14" viewBox="0 0 15 14" fill="none" xmlns="http://www.w3.org/2000/svg">
<path fill-rule="evenodd" clip-rule="evenodd" d="M1.58658 1.13451C2.22507 0.522097 3.26028 0.522097 3.89878 1.13451L13.8438 10.6734C14.4823 11.2858 14.4823 12.2787 13.8438 12.8911C13.2053 13.5035 12.1701 13.5035 11.5316 12.8911L1.58658 3.35228C0.948079 2.73986 0.948078 1.74693 1.58658 1.13451Z" fill="#777777"/>
<path fill-rule="evenodd" clip-rule="evenodd" d="M1.1561 12.8655C0.517604 12.2531 0.517604 11.2601 1.1561 10.6477L11.1011 1.10887C11.7396 0.496457 12.7748 0.496457 13.4133 1.10887C14.0518 1.72129 14.0518 2.71422 13.4133 3.32663L3.4683 12.8655C2.8298 13.4779 1.7946 13.4779 1.1561 12.8655Z" fill="#777777"/>
</svg>
