<svg width="11" height="8" viewBox="0 0 11 8" fill="none" xmlns="http://www.w3.org/2000/svg">
<path fill-rule="evenodd" clip-rule="evenodd" d="M0 1.88195C0 1.6462 0.195366 1.45508 0.436363 1.45508H6.83637C8.68319 1.45508 10.1818 2.92116 10.1818 4.72782C10.1818 6.53448 8.68318 8.00053 6.83637 8.00053H2.18182C1.94082 8.00053 1.74545 7.80941 1.74545 7.57366C1.74545 7.3379 1.94082 7.14678 2.18182 7.14678H6.83637C8.20119 7.14678 9.30909 6.06296 9.30909 4.72782C9.30909 3.39267 8.20118 2.30883 6.83637 2.30883H0.436363C0.195366 2.30883 0 2.11771 0 1.88195Z" fill="black"/>
<path fill-rule="evenodd" clip-rule="evenodd" d="M2.06377 0.120665C2.22117 0.281552 2.22117 0.542402 2.06377 0.703289L0.97304 1.81819L2.06377 2.93307C2.22117 3.09396 2.22117 3.35481 2.06377 3.5157C1.90637 3.67658 1.65118 3.67659 1.49378 3.5157L0.118051 2.10951C0.0424648 2.03225 4.16408e-07 1.92746 0 1.81819C-4.16402e-07 1.70893 0.0424632 1.60414 0.118049 1.52688L1.49378 0.120665C1.65118 -0.0402218 1.90637 -0.0402218 2.06377 0.120665Z" fill="black"/>
</svg>
