<svg width="10" height="11" viewBox="0 0 10 11" fill="none" xmlns="http://www.w3.org/2000/svg">
<path d="M1.84704 5.535C1.9113 5.50877 1.9804 5.49513 2.05026 5.49489C2.12013 5.49465 2.18933 5.50781 2.25378 5.53359C2.31824 5.55938 2.37663 5.59726 2.42552 5.645C2.47441 5.69275 2.51279 5.74939 2.53841 5.81157C2.56402 5.87375 2.57635 5.94021 2.57465 6.00702C2.57295 6.07384 2.55727 6.13965 2.52853 6.20057C2.4998 6.26149 2.45858 6.31627 2.40733 6.36169C2.35608 6.40711 2.29583 6.44224 2.23014 6.465C1.88078 6.59669 1.58092 6.82593 1.3696 7.12288C1.15829 7.41984 1.04528 7.77076 1.0453 8.13V9C1.0453 9.13261 1.10036 9.25979 1.19838 9.35355C1.29639 9.44732 1.42933 9.5 1.56795 9.5H5.74914C5.88776 9.5 6.0207 9.44732 6.11871 9.35355C6.21673 9.25979 6.27179 9.13261 6.27179 9V8.1765C6.27185 7.80574 6.15412 7.44371 5.93422 7.13841C5.71431 6.83312 5.40261 6.59897 5.04043 6.467C4.97434 6.44506 4.91352 6.41064 4.86158 6.3658C4.80965 6.32095 4.76766 6.26659 4.73809 6.20593C4.70853 6.14527 4.69199 6.07955 4.68947 6.01267C4.68694 5.94578 4.69848 5.87909 4.7234 5.81655C4.74832 5.75401 4.78611 5.6969 4.83453 5.64859C4.88295 5.60028 4.94101 5.56176 5.00528 5.53531C5.06955 5.50887 5.13871 5.49504 5.20867 5.49464C5.27863 5.49425 5.34796 5.50729 5.41256 5.533C5.97263 5.73709 6.45466 6.09916 6.79478 6.57125C7.1349 7.04334 7.31705 7.60314 7.31709 8.1765V9C7.31709 9.39782 7.1519 9.77936 6.85785 10.0607C6.5638 10.342 6.16499 10.5 5.74914 10.5H1.56795C1.1521 10.5 0.753289 10.342 0.459241 10.0607C0.165194 9.77936 0 9.39782 0 9L0 8.13C7.1917e-05 7.57008 0.176277 7.02314 0.505695 6.56032C0.835113 6.09751 1.30249 5.74024 1.84704 5.535ZM3.65855 0.5C4.21301 0.5 4.74476 0.710714 5.13682 1.08579C5.52888 1.46086 5.74914 1.96957 5.74914 2.5V3.5C5.74914 4.03043 5.52888 4.53914 5.13682 4.91421C4.74476 5.28929 4.21301 5.5 3.65855 5.5C3.10408 5.5 2.57233 5.28929 2.18027 4.91421C1.78821 4.53914 1.56795 4.03043 1.56795 3.5V2.5C1.56795 1.96957 1.78821 1.46086 2.18027 1.08579C2.57233 0.710714 3.10408 0.5 3.65855 0.5V0.5ZM3.65855 1.5C3.38131 1.5 3.11544 1.60536 2.91941 1.79289C2.72338 1.98043 2.61325 2.23478 2.61325 2.5V3.5C2.61325 3.76522 2.72338 4.01957 2.91941 4.20711C3.11544 4.39464 3.38131 4.5 3.65855 4.5C3.93578 4.5 4.20165 4.39464 4.39768 4.20711C4.59371 4.01957 4.70384 3.76522 4.70384 3.5V2.5C4.70384 2.23478 4.59371 1.98043 4.39768 1.79289C4.20165 1.60536 3.93578 1.5 3.65855 1.5ZM9.10141 3.5L9.84044 4.207C9.93565 4.3013 9.98833 4.4276 9.98713 4.5587C9.98594 4.6898 9.93098 4.81521 9.83407 4.90791C9.73717 5.00061 9.60608 5.0532 9.46905 5.05434C9.33201 5.05548 9.19999 5.00508 9.10141 4.914L8.36239 4.207L7.62336 4.914C7.57515 4.96176 7.51748 4.99985 7.45371 5.02605C7.38995 5.05226 7.32137 5.06605 7.25197 5.06663C7.18257 5.0672 7.11375 5.05455 7.04952 5.02941C6.98529 5.00427 6.92693 4.96714 6.87786 4.9202C6.82879 4.87325 6.78998 4.81743 6.7637 4.75598C6.73742 4.69453 6.72419 4.62869 6.7248 4.5623C6.7254 4.49591 6.73982 4.4303 6.76721 4.3693C6.7946 4.3083 6.83442 4.25312 6.88434 4.207L7.62336 3.5L6.88434 2.793C6.78913 2.6987 6.73645 2.5724 6.73764 2.4413C6.73883 2.3102 6.7938 2.18479 6.8907 2.09209C6.98761 1.99939 7.11869 1.9468 7.25573 1.94566C7.39277 1.94452 7.52479 1.99492 7.62336 2.086L8.36239 2.793L9.10141 2.086C9.14963 2.03824 9.2073 2.00015 9.27106 1.97395C9.33483 1.94774 9.40341 1.93395 9.47281 1.93337C9.54221 1.9328 9.61103 1.94545 9.67526 1.97059C9.73949 1.99573 9.79785 2.03286 9.84692 2.0798C9.89599 2.12675 9.9348 2.18257 9.96108 2.24402C9.98736 2.30547 10.0006 2.37131 9.99998 2.4377C9.99938 2.50409 9.98496 2.5697 9.95757 2.6307C9.93018 2.6917 9.89036 2.74688 9.84044 2.793L9.10141 3.5Z" fill="white"/>
</svg>
