<svg width="50" height="50" viewBox="0 0 50 50" fill="none" xmlns="http://www.w3.org/2000/svg">
<g filter="url(#filter0_d_1397_8488)">
<rect x="4" width="42" height="42" rx="21" fill="white"/>
</g>
<path d="M14.6778 16.9818C15.0797 16.9818 15.4365 16.7142 15.6078 16.3221C17.2278 12.6137 20.7142 10.0485 24.754 10.0485C28.7937 10.0485 32.2801 12.6137 33.9001 16.3221C33.9124 16.3502 33.9256 16.3778 33.9398 16.4046C33.9541 16.4316 33.9693 16.458 33.9854 16.4835L31.9071 17.1222C31.6652 17.1965 31.5976 17.5315 31.7889 17.7076L35.8529 21.448C36.0241 21.6056 36.2888 21.5243 36.3573 21.293L37.9846 15.8038C38.0612 15.5454 37.8401 15.2991 37.5982 15.3734L35.7653 15.9366C35.7567 15.8353 35.732 15.7323 35.6893 15.6304C33.8021 11.1298 29.6155 8 24.754 8C19.8924 8 15.7058 11.1298 13.8186 15.6304C13.5451 16.2826 14.0143 16.9818 14.6778 16.9818Z" fill="#3A3A3A"/>
<path d="M34.7613 25.1758C34.3644 25.1758 34.0107 25.4366 33.8363 25.8213C32.1898 29.4522 28.7414 31.9515 24.754 31.9515C21.4707 31.9515 18.5528 30.257 16.7055 27.6315L18.2565 27.2572C18.493 27.2001 18.5837 26.8884 18.4199 26.6957L14.3612 21.9229C14.1973 21.7303 13.9017 21.8009 13.8286 22.0502L12.015 28.2404C11.9419 28.4903 12.1472 28.7317 12.3842 28.6745L14.7053 28.1143C16.8493 31.6587 20.5491 34 24.754 34C29.5538 34 33.6957 30.9491 35.6164 26.5403C35.9013 25.8863 35.4312 25.1758 34.7613 25.1758Z" fill="#3A3A3A"/>
<defs>
<filter id="filter0_d_1397_8488" x="0" y="0" width="50" height="50" filterUnits="userSpaceOnUse" color-interpolation-filters="sRGB">
<feFlood flood-opacity="0" result="BackgroundImageFix"/>
<feColorMatrix in="SourceAlpha" type="matrix" values="0 0 0 0 0 0 0 0 0 0 0 0 0 0 0 0 0 0 127 0" result="hardAlpha"/>
<feOffset dy="4"/>
<feGaussianBlur stdDeviation="2"/>
<feComposite in2="hardAlpha" operator="out"/>
<feColorMatrix type="matrix" values="0 0 0 0 0.620833 0 0 0 0 0.620833 0 0 0 0 0.620833 0 0 0 0.25 0"/>
<feBlend mode="normal" in2="BackgroundImageFix" result="effect1_dropShadow_1397_8488"/>
<feBlend mode="normal" in="SourceGraphic" in2="effect1_dropShadow_1397_8488" result="shape"/>
</filter>
</defs>
</svg>
