<svg viewBox="0 0 52 52" xml:space="preserve" xmlns="http://www.w3.org/2000/svg" enable-background="new 0 0 52 52"><path d="M44.426 3.14c7.336 1.974 1.241 8.92-.265 13.2-.955 2.714-1.464 5.502-3.345 7.737-1.809 2.148-4.386 3.791-6.578 5.53l1.92.796c-.355-2.702-1.026-5.568-.496-8.243.374-1.886 1.336-3.82 1.958-5.64.722-2.116 1.269-4.295 1.998-6.404.287-.83 3.721-7.982 5.03-7.38 1.306.6 2.45-1.338 1.135-1.943-3.717-1.71-7.145 5.391-8.105 8.055-1.371 3.807-3.015 7.925-4.095 11.79-.887 3.174-.101 6.518.325 9.765.132 1.005 1.115 1.434 1.92.795 3.256-2.582 6.845-4.687 8.606-8.562 1.734-3.816 2.775-7.614 4.815-11.333C52.137 6.04 50.71 2.5 45.024.97c-1.4-.377-1.997 1.793-.598 2.17z" fill="#ffffff" class="fill-231f20"></path><path d="M40.392 8.204c2.326.2 4.313 1.2 6.122 2.67 1.115.906 2.716-.677 1.591-1.59-2.32-1.886-4.725-3.072-7.713-3.33-1.443-.125-1.434 2.126 0 2.25zM8.808 31.523l26.25.048c1.448.002 1.45-2.248 0-2.25l-26.25-.048c-1.448-.003-1.45 2.247 0 2.25zM8.725 27.122h16.583c1.448 0 1.45-2.25 0-2.25H8.725c-1.448 0-1.45 2.25 0 2.25zM8.808 22.174l12.917.1c1.448.011 1.45-2.239 0-2.25l-12.917-.1c-1.448-.01-1.45 2.24 0 2.25z" fill="#ffffff" class="fill-231f20"></path><path d="M41.7 24.33c-.03 4.121.338 8.46-.092 12.563-.402 3.838-1.609 5.008-5.274 4.968l-6.962-.076-13.925-.151c-1.964-.022-4.02.149-5.967-.065-1.907.236-3.66-.244-5.262-1.442a23.277 23.277 0 0 1-.172-3.308c-.109-4.283-.017-8.58-.026-12.865-.003-1.652-.86-6.565-.015-7.918 1.275-2.04 4.725-1.604 6.646-1.616l27.907-.178c1.447-.01 1.45-2.26 0-2.25l-21.927.14c-3.297.02-6.677-.156-9.967.063-1.243.084-2.614.059-3.638.911-2.915 2.428-1.258 9.534-1.252 12.827.007 3.299.003 6.598.02 9.897.01 1.892-.27 4.509.775 6.235 1.92 3.175 7.86 1.764 10.89 1.797l20.886.227c2.651.03 7.757 1.153 9.255-2.01.88-1.86.257-5.027.271-6.98l.079-10.769c.01-1.448-2.24-1.45-2.25 0z" fill="#ffffff" class="fill-231f20"></path><path d="m3.225 36.977 38.75-.032c1.448-.001 1.45-2.251 0-2.25l-38.75.032c-1.448.001-1.45 2.251 0 2.25zM22.558 40.372c1.448 0 1.45-2.25 0-2.25-1.448 0-1.45 2.25 0 2.25zM13.142 51.445c6.223.063 12.444.002 18.665-.184 1.445-.043 1.451-2.293 0-2.25-6.22.186-12.442.247-18.665.184-1.449-.014-1.45 2.236 0 2.25z" fill="#ffffff" class="fill-231f20"></path><path d="M24.307 44.16c.844.541 1.19 1.833 1.771 2.628.73 1 1.909 1.857 2.378 3.013.537 1.324 2.715.745 2.17-.599-.633-1.557-1.918-2.518-2.841-3.88-.768-1.134-1.136-2.332-2.342-3.104-1.223-.783-2.353 1.163-1.136 1.943zM18.76 43.12c-.378 1.097-1.258 1.948-1.945 2.858a35.11 35.11 0 0 0-2.044 3.044c-.749 1.244 1.196 2.376 1.943 1.136.74-1.23 1.54-2.415 2.432-3.54.726-.916 1.398-1.78 1.784-2.9.472-1.371-1.7-1.96-2.17-.598z" fill="#ffffff" class="fill-231f20"></path></svg>