<svg width="15" height="20" viewBox="0 0 15 20" fill="none" xmlns="http://www.w3.org/2000/svg">
<path d="M7.5 2.5C9.05062 2.5 10.3125 3.76187 10.3125 5.3125H12.1875C12.1875 2.72781 10.0847 0.625 7.5 0.625C4.91531 0.625 2.8125 2.72781 2.8125 5.3125V7.1875H1.875C0.840937 7.1875 0 8.02844 0 9.0625V17.5C0 18.5341 0.840937 19.375 1.875 19.375H13.125C14.1591 19.375 15 18.5341 15 17.5V9.0625C15 8.02844 14.1591 7.1875 13.125 7.1875H4.6875V5.3125C4.6875 3.76187 5.94938 2.5 7.5 2.5ZM13.1269 17.5H8.4375V15.3644C8.99531 15.0391 9.375 14.4409 9.375 13.75C9.375 12.7159 8.53406 11.875 7.5 11.875C6.46594 11.875 5.625 12.7159 5.625 13.75C5.625 14.44 6.00469 15.0391 6.5625 15.3644V17.5H1.875V9.0625H13.125L13.1269 17.5Z" fill="white"/>
</svg>
