<svg width="32" height="32" viewBox="0 0 32 32" fill="none" xmlns="http://www.w3.org/2000/svg">
<ellipse cx="4.05" cy="4.05" rx="4.05" ry="4.05" transform="matrix(-1 0 0 1 19.9102 12.4498)" stroke="white" stroke-width="2.5"/>
<path d="M21.935 6.96553L21.31 8.04806H21.31L21.935 6.96553ZM21.9352 26.0343L22.5602 27.1168V27.1168L21.9352 26.0343ZM9.7852 26.0335L9.1602 27.1161H9.1602L9.7852 26.0335ZM9.78539 6.96581L9.16039 5.88328L9.78539 6.96581ZM11.7461 4.17747L10.5161 3.95493L11.7461 4.17747ZM12.3478 3.46135L12.0235 2.25416L12.3478 3.46135ZM3.4031 13.2324L2.66361 14.2402L3.4031 13.2324ZM3.03735 12.2653L1.85035 11.8735L3.03735 12.2653ZM6.64056 25.6488L6.98599 26.8501L6.64056 25.6488ZM5.73267 25.4272L6.67004 24.6003L5.73267 25.4272ZM11.746 28.8224L12.9761 28.6L11.746 28.8224ZM19.9745 28.8223L18.7445 28.5997L19.9745 28.8223ZM19.3729 29.5384L19.6974 30.7455L19.3729 29.5384ZM25.9866 25.4277L26.9239 26.2546L25.9866 25.4277ZM25.0789 25.6493L24.7338 26.8507L25.0789 25.6493ZM28.6824 12.2655L29.8694 11.8737L28.6824 12.2655ZM28.3167 13.2326L29.0562 14.2403L28.3167 13.2326ZM3.03725 20.7344L4.22427 20.3426L3.03725 20.7344ZM3.40302 19.7673L4.14248 20.7751L3.40302 19.7673ZM25.0788 7.35055L24.7336 6.14915L25.0788 7.35055ZM25.9864 7.57214L26.9237 6.74514L25.9864 7.57214ZM5.7332 7.57219L6.67052 8.39918L5.7332 7.57219ZM6.641 7.35064L6.29564 8.55199L6.641 7.35064ZM28.3168 19.7671L27.5772 20.7749L28.3168 19.7671ZM28.6825 20.7342L29.8695 21.1259L28.6825 20.7342ZM19.9743 4.17759L18.7443 4.40025L19.9743 4.17759ZM19.3727 3.46159L19.6972 2.25443L19.3727 3.46159ZM18.7443 4.40025C19.0118 5.87756 19.9049 7.23682 21.31 8.04806L22.56 5.883C21.8181 5.45468 21.3465 4.73991 21.2044 3.95493L18.7443 4.40025ZM21.31 8.04806C22.6072 8.79697 24.0916 8.93471 25.4239 8.55195L24.7336 6.14915C24.0265 6.35228 23.2456 6.2788 22.56 5.883L21.31 8.04806ZM29.8694 11.8737C29.2377 9.95996 28.2256 8.22071 26.9237 6.74514L25.0491 8.39914C26.1317 9.62621 26.9717 11.0706 27.4954 12.6573L29.8694 11.8737ZM27.9104 16.4998C27.9104 15.5734 28.359 14.752 29.0562 14.2403L27.5771 12.2248C26.2657 13.1872 25.4104 14.7437 25.4104 16.4998H27.9104ZM29.0563 18.7593C28.359 18.2477 27.9104 17.4262 27.9104 16.4998H25.4104C25.4104 18.256 26.2658 19.8125 27.5772 20.7749L29.0563 18.7593ZM26.9239 26.2546C28.2258 24.779 29.2379 23.0397 29.8695 21.1259L27.4955 20.3424C26.9718 21.9291 26.1319 23.3736 25.0493 24.6007L26.9239 26.2546ZM22.5602 27.1168C23.2457 26.721 24.0267 26.6475 24.7338 26.8507L25.4241 24.4479C24.0918 24.0651 22.6073 24.2028 21.3102 24.9517L22.5602 27.1168ZM21.2045 29.045C21.3466 28.26 21.8183 27.5451 22.5602 27.1168L21.3102 24.9517C19.905 25.763 19.0119 27.1223 18.7445 28.5997L21.2045 29.045ZM15.8598 31.25C17.1856 31.25 18.4724 31.0748 19.6974 30.7455L19.0485 28.3312C18.0331 28.6041 16.9645 28.75 15.8598 28.75V31.25ZM12.0234 30.7458C13.248 31.0749 14.5345 31.25 15.8598 31.25V28.75C14.7555 28.75 13.6871 28.6042 12.6721 28.3314L12.0234 30.7458ZM9.1602 27.1161C9.90227 27.5445 10.374 28.2595 10.516 29.0448L12.9761 28.6C12.7089 27.1222 11.8157 25.7625 10.4102 24.951L9.1602 27.1161ZM6.98599 26.8501C7.69322 26.6467 8.47446 26.7201 9.1602 27.1161L10.4102 24.951C9.11267 24.2019 7.6277 24.0643 6.29513 24.4474L6.98599 26.8501ZM1.85023 21.1262C2.48177 23.0397 3.49367 24.7787 4.7953 26.2542L6.67004 24.6003C5.58762 23.3733 4.74788 21.9291 4.22427 20.3426L1.85023 21.1262ZM3.80964 16.4998C3.80964 17.4263 3.36093 18.2478 2.66356 18.7595L4.14248 20.7751C5.45411 19.8127 6.30964 18.2561 6.30964 16.4998H3.80964ZM2.66361 14.2402C3.36095 14.7519 3.80964 15.5734 3.80964 16.4998H6.30964C6.30964 14.7436 5.45415 13.187 4.14258 12.2246L2.66361 14.2402ZM4.79588 6.74519C3.49406 8.22068 2.48199 9.95982 1.85035 11.8735L4.22436 12.6571C4.74806 11.0705 5.58794 9.62619 6.67052 8.39918L4.79588 6.74519ZM9.16039 5.88328C8.4747 6.27916 7.69353 6.3526 6.98635 6.1493L6.29564 8.55199C7.62814 8.93505 9.11297 8.79741 10.4104 8.04834L9.16039 5.88328ZM10.5161 3.95493C10.3741 4.74002 9.90235 5.45491 9.16039 5.88328L10.4104 8.04835C11.8157 7.237 12.7089 5.87752 12.9762 4.4L10.5161 3.95493ZM15.8598 1.75C14.5345 1.75 13.2481 1.92511 12.0235 2.25416L12.6722 4.66853C13.6872 4.39581 14.7555 4.25 15.8598 4.25V1.75ZM19.6972 2.25443C18.4722 1.92521 17.1855 1.75 15.8598 1.75V4.25C16.9644 4.25 18.033 4.39589 19.0483 4.66875L19.6972 2.25443ZM12.9762 4.4C12.9721 4.4222 12.9603 4.46283 12.9199 4.51284C12.8758 4.56755 12.7932 4.63601 12.6722 4.66853L12.0235 2.25416C11.114 2.49852 10.6385 3.27864 10.5161 3.95493L12.9762 4.4ZM4.14258 12.2246C4.16214 12.2389 4.19433 12.2689 4.21983 12.3321C4.24844 12.403 4.2686 12.5231 4.22436 12.6571L1.85035 11.8735C1.51614 12.886 2.04985 13.7898 2.66361 14.2402L4.14258 12.2246ZM6.29513 24.4474C6.31695 24.4412 6.35867 24.4338 6.4213 24.4478C6.48978 24.4631 6.58742 24.5066 6.67004 24.6003L4.7953 26.2542C5.41714 26.959 6.32561 27.04 6.98599 26.8501L6.29513 24.4474ZM12.6721 28.3314C12.7931 28.364 12.8757 28.4324 12.9199 28.4872C12.9602 28.5372 12.9721 28.5778 12.9761 28.6L10.516 29.0448C10.6383 29.7211 11.1138 30.5014 12.0234 30.7458L12.6721 28.3314ZM18.7445 28.5997C18.7485 28.5775 18.7604 28.5369 18.8007 28.4869C18.8449 28.4322 18.9274 28.3637 19.0485 28.3312L19.6974 30.7455C20.6067 30.5011 21.0821 29.7212 21.2045 29.045L18.7445 28.5997ZM25.0493 24.6007C25.1319 24.507 25.2295 24.4636 25.2979 24.4482C25.3606 24.4342 25.4023 24.4416 25.4241 24.4479L24.7338 26.8507C25.394 27.0404 26.3022 26.9593 26.9239 26.2546L25.0493 24.6007ZM27.4954 12.6573C27.4511 12.5233 27.4713 12.4032 27.4999 12.3323C27.5254 12.2691 27.5576 12.2392 27.5771 12.2248L29.0562 14.2403C29.6699 13.7899 30.2036 12.8862 29.8694 11.8737L27.4954 12.6573ZM4.22427 20.3426C4.26849 20.4766 4.24834 20.5967 4.21972 20.6676C4.19423 20.7308 4.16203 20.7608 4.14248 20.7751L2.66356 18.7595C2.04978 19.2098 1.51604 20.1136 1.85023 21.1262L4.22427 20.3426ZM25.4239 8.55195C25.4021 8.55822 25.3604 8.56556 25.2978 8.55156C25.2293 8.53626 25.1317 8.49277 25.0491 8.39914L26.9237 6.74514C26.302 6.0405 25.3939 5.95946 24.7336 6.14915L25.4239 8.55195ZM6.67052 8.39918C6.58791 8.49283 6.49028 8.53632 6.42181 8.55162C6.35918 8.56561 6.31747 8.55826 6.29564 8.55199L6.98635 6.1493C6.32603 5.95947 5.41769 6.04043 4.79588 6.74519L6.67052 8.39918ZM27.5772 20.7749C27.5577 20.7605 27.5255 20.7306 27.5 20.6674C27.4714 20.5965 27.4512 20.4764 27.4955 20.3424L29.8695 21.1259C30.2036 20.1135 29.67 19.2097 29.0563 18.7593L27.5772 20.7749ZM21.2044 3.95493C21.0819 3.27875 20.6065 2.49881 19.6972 2.25443L19.0483 4.66875C18.9273 4.63622 18.8447 4.56777 18.8006 4.51307C18.7602 4.46307 18.7484 4.42245 18.7443 4.40025L21.2044 3.95493Z" fill="white"/>
</svg>
