<svg width="44" height="46" viewBox="0 0 44 46" fill="none" xmlns="http://www.w3.org/2000/svg">
<circle cx="6.3" cy="6.3" r="6.3" transform="matrix(-1 0 0 1 28.3922 16.7002)" stroke="black" stroke-width="3.5"/>
<path d="M31.541 8.16877L30.666 9.68432L30.666 9.68432L31.541 8.16877ZM31.5411 37.8305L32.4161 39.3461H32.4161L31.5411 37.8305ZM12.6411 37.8305L11.7661 39.346H11.7661L12.6411 37.8305ZM12.6413 8.16871L11.7663 6.65316L12.6413 8.16871ZM15.7393 3.52295L17.4746 3.74927L15.7393 3.52295ZM2.4155 17.7112L3.36802 16.2431L2.4155 17.7112ZM2.03432 16.7583L0.363201 16.2388L2.03432 16.7583ZM7.45246 37.3253L8.01807 38.9814L7.45246 37.3253ZM6.54626 37.1196L5.25121 38.2966L6.54626 37.1196ZM16.3259 43.1987L16.8054 41.5157L16.3259 43.1987ZM15.7392 42.4769L14.0039 42.7031L15.7392 42.4769ZM28.443 42.4769L26.7077 42.2508L28.443 42.4769ZM27.8564 43.1987L27.3769 41.5157L27.8564 43.1987ZM37.636 37.1196L36.341 35.9426L37.636 37.1196ZM36.7298 37.3254L37.2954 35.6693L36.7298 37.3254ZM42.1479 16.758L40.4768 17.2775L42.1479 16.758ZM41.7667 17.7109L40.8143 16.2428L41.7667 17.7109ZM2.41552 28.2889L1.463 26.8208L2.41552 28.2889ZM36.7293 8.67403L37.2949 10.3301L36.7293 8.67403ZM37.6355 8.87977L38.9305 7.70271L37.6355 8.87977ZM7.453 8.67399L6.88749 10.3301L7.453 8.67399ZM41.7666 28.2891L40.8142 29.7573L41.7666 28.2891ZM42.1479 29.242L40.4768 28.7225L42.1479 29.242ZM28.4429 3.52295L30.1782 3.29665L28.4429 3.52295ZM27.8563 2.80123L27.3768 4.48427L27.8563 2.80123ZM26.7076 3.74924C27.02 6.14456 28.407 8.3801 30.666 9.68432L32.416 6.65323C31.1405 5.91687 30.3558 4.65805 30.1782 3.29665L26.7076 3.74924ZM30.666 9.68432C32.761 10.8939 35.1762 11.0536 37.2949 10.3301L36.1638 7.01793C34.9605 7.42885 33.5997 7.33667 32.416 6.65323L30.666 9.68432ZM43.819 16.2385C42.8213 13.0291 41.1332 10.1262 38.9305 7.70271L36.3405 10.0568C38.2067 12.11 39.6339 14.5663 40.4768 17.2775L43.819 16.2385ZM40.6408 23C40.6408 21.4008 41.4645 19.9929 42.7191 19.1791L40.8143 16.2428C38.6071 17.6747 37.1408 20.1656 37.1408 23H40.6408ZM42.7191 26.821C41.4645 26.0071 40.6408 24.5993 40.6408 23H37.1408C37.1408 25.8345 38.6071 28.3254 40.8142 29.7573L42.7191 26.821ZM38.931 38.2966C41.1335 35.8733 42.8213 32.9706 43.819 29.7616L40.4768 28.7225C39.634 31.4335 38.2069 33.8895 36.341 35.9426L38.931 38.2966ZM32.4161 39.3461C33.6 38.6626 34.9608 38.5704 36.1642 38.9815L37.2954 35.6693C35.1767 34.9457 32.7613 35.1053 30.6661 36.315L32.4161 39.3461ZM30.1784 42.7031C30.3558 41.3415 31.1406 40.0825 32.4161 39.3461L30.6661 36.315C28.4069 37.6193 27.0199 39.8552 26.7077 42.2508L30.1784 42.7031ZM22.0912 45.75C24.2542 45.75 26.3495 45.4476 28.3358 44.8818L27.3769 41.5157C25.6994 41.9936 23.9267 42.25 22.0912 42.25V45.75ZM15.8464 44.8818C17.8327 45.4476 19.9281 45.75 22.0912 45.75V42.25C20.2556 42.25 18.4829 41.9936 16.8054 41.5157L15.8464 44.8818ZM11.7661 39.346C13.0417 40.0825 13.8265 41.3415 14.0039 42.7031L17.4746 42.2508C17.1624 39.8552 15.7754 37.6193 13.5161 36.3149L11.7661 39.346ZM8.01807 38.9814C9.22146 38.5704 10.5823 38.6626 11.7661 39.346L13.5161 36.3149C11.4209 35.1053 9.00555 34.9456 6.88684 35.6693L8.01807 38.9814ZM0.363225 29.7613C1.36085 32.9704 3.04869 35.8732 5.25121 38.2966L7.84132 35.9426C5.97532 33.8894 4.54824 31.4333 3.70546 28.7223L0.363225 29.7613ZM3.54098 23C3.54098 24.5992 2.71739 26.0069 1.463 26.8208L3.36804 29.757C5.57494 28.3251 7.04098 25.8343 7.04098 23H3.54098ZM1.46298 19.1792C2.71738 19.9931 3.54098 21.4009 3.54098 23H7.04098C7.04098 20.1658 5.57492 17.675 3.36802 16.2431L1.46298 19.1792ZM5.25189 7.70267C3.04901 10.1263 1.36092 13.0293 0.363201 16.2388L3.70543 17.2778C4.5483 14.5664 5.97559 12.1101 7.84188 10.0568L5.25189 7.70267ZM11.7663 6.65316C10.5826 7.33659 9.22183 7.42878 8.01851 7.01788L6.88749 10.3301C9.00608 11.0535 11.4213 10.8938 13.5163 9.68425L11.7663 6.65316ZM14.004 3.29664C13.8265 4.65802 13.0417 5.91681 11.7663 6.65316L13.5163 9.68425C15.7752 8.38005 17.1622 6.14456 17.4746 3.74927L14.004 3.29664ZM22.0912 0.25C19.9281 0.25 17.8328 0.552364 15.8465 1.11821L16.8054 4.48428C18.4829 4.00641 20.2556 3.75 22.0912 3.75V0.25ZM28.3357 1.11819C26.3495 0.552356 24.2542 0.25 22.0912 0.25V3.75C23.9267 3.75 25.6994 4.0064 27.3768 4.48427L28.3357 1.11819ZM17.4746 3.74927C17.4434 3.9888 17.2607 4.3546 16.8054 4.48428L15.8465 1.11821C14.7422 1.43281 14.1225 2.38784 14.004 3.29664L17.4746 3.74927ZM3.36802 16.2431C3.5862 16.3847 3.86547 16.763 3.70543 17.2778L0.363201 16.2388C-0.0224659 17.4795 0.607174 18.624 1.46298 19.1792L3.36802 16.2431ZM6.88684 35.6693C7.11577 35.5911 7.5238 35.5932 7.84132 35.9426L5.25121 38.2966C6.02218 39.1449 7.15113 39.2775 8.01807 38.9814L6.88684 35.6693ZM16.8054 41.5157C17.2606 41.6454 17.4433 42.0112 17.4746 42.2508L14.0039 42.7031C14.1223 43.6119 14.742 44.5671 15.8464 44.8818L16.8054 41.5157ZM26.7077 42.2508C26.7389 42.0113 26.9216 41.6454 27.3769 41.5157L28.3358 44.8818C29.4403 44.5672 30.0599 43.612 30.1784 42.7031L26.7077 42.2508ZM36.341 35.9426C36.6585 35.5933 37.0665 35.5911 37.2954 35.6693L36.1642 38.9815C37.0311 39.2775 38.1601 39.1449 38.931 38.2966L36.341 35.9426ZM40.4768 17.2775C40.3167 16.7627 40.5961 16.3844 40.8143 16.2428L42.7191 19.1791C43.575 18.6238 44.2047 17.4792 43.819 16.2385L40.4768 17.2775ZM3.70546 28.7223C3.86549 29.2371 3.58622 29.6154 3.36804 29.757L1.463 26.8208C0.607191 27.3761 -0.0224464 28.5206 0.363225 29.7613L3.70546 28.7223ZM37.2949 10.3301C37.066 10.4083 36.658 10.4061 36.3405 10.0568L38.9305 7.70271C38.1595 6.85452 37.0307 6.7219 36.1638 7.01793L37.2949 10.3301ZM7.84188 10.0568C7.52439 10.4061 7.1164 10.4083 6.88749 10.3301L8.01851 7.01788C7.15163 6.72187 6.02281 6.8545 5.25189 7.70267L7.84188 10.0568ZM40.8142 29.7573C40.596 29.6157 40.3167 29.2374 40.4768 28.7225L43.819 29.7616C44.2047 28.5208 43.575 27.3763 42.7191 26.821L40.8142 29.7573ZM30.1782 3.29665C30.0597 2.38784 29.4401 1.43279 28.3357 1.11819L27.3768 4.48427C26.9216 4.35458 26.7389 3.98878 26.7076 3.74924L30.1782 3.29665Z" fill="black"/>
</svg>
