<svg width="32" height="33" viewBox="0 0 32 33" fill="none" xmlns="http://www.w3.org/2000/svg">
<path d="M8 7.41667C8 6.70942 8.28095 6.03115 8.78105 5.53105C9.28115 5.03095 9.95942 4.75 10.6667 4.75H21.3333C22.0406 4.75 22.7189 5.03095 23.219 5.53105C23.719 6.03115 24 6.70942 24 7.41667V26.0833C24 26.7906 23.719 27.4689 23.219 27.969C22.7189 28.469 22.0406 28.75 21.3333 28.75H10.6667C9.95942 28.75 9.28115 28.469 8.78105 27.969C8.28095 27.4689 8 26.7906 8 26.0833V7.41667Z" stroke="#3B82F6" stroke-width="3" stroke-linecap="round" stroke-linejoin="round"/>
<path d="M14.6667 6.08398H17.3333" stroke="#3B82F6" stroke-width="3" stroke-linecap="round" stroke-linejoin="round"/>
<path d="M16 23.416V23.4287" stroke="#3B82F6" stroke-width="3" stroke-linecap="round" stroke-linejoin="round"/>
</svg>
