<svg width="32" height="38" viewBox="0 0 32 38" fill="none" xmlns="http://www.w3.org/2000/svg">
<path d="M14 24.5397H5.28889C4.94705 24.5397 4.61922 24.3776 4.37751 24.0891C4.13579 23.8005 4 23.4092 4 23.0012V7.61659C4 7.20856 4.13579 6.81725 4.37751 6.52873C4.61922 6.24021 4.94705 6.07812 5.28889 6.07812H25.9111C26.2529 6.07812 26.5808 6.24021 26.8225 6.52873C27.0642 6.81725 27.2 7.20856 27.2 7.61659V9.15565" stroke="#3B82F6" stroke-width="3" stroke-linecap="round" stroke-linejoin="round"/>
<path d="M9.6001 29.1562H14.0001" stroke="#3B82F6" stroke-width="3" stroke-linecap="round" stroke-linejoin="round"/>
<path d="M11.2002 25.4629L11.2002 29.1552" stroke="#3B82F6" stroke-width="3" stroke-linecap="round" stroke-linejoin="round"/>
<path d="M17.333 14.3842C17.333 13.9761 17.4735 13.5848 17.7235 13.2963C17.9736 13.0078 18.3127 12.8457 18.6663 12.8457H26.6663C27.02 12.8457 27.3591 13.0078 27.6092 13.2963C27.8592 13.5848 27.9997 13.9761 27.9997 14.3842V29.7688C27.9997 30.1768 27.8592 30.5681 27.6092 30.8566C27.3591 31.1452 27.02 31.3072 26.6663 31.3072H18.6663C18.3127 31.3072 17.9736 31.1452 17.7235 30.8566C17.4735 30.5681 17.333 30.1768 17.333 29.7688V14.3842Z" stroke="#3B82F6" stroke-width="3" stroke-linecap="round" stroke-linejoin="round"/>
<path d="M21.3335 14.3867H24.0002" stroke="#3B82F6" stroke-width="3" stroke-linecap="round" stroke-linejoin="round"/>
</svg>
