<svg width="28" height="28" viewBox="0 0 28 28" fill="none" xmlns="http://www.w3.org/2000/svg">
<path d="M17.5 10.667L22.8118 8.01172C22.9897 7.92286 23.1872 7.88091 23.3858 7.88985C23.5844 7.8988 23.7774 7.95834 23.9465 8.06282C24.1157 8.16731 24.2553 8.31327 24.3521 8.48687C24.449 8.66046 24.4999 8.85593 24.5 9.05472V16.946C24.4999 17.1448 24.449 17.3403 24.3521 17.5139C24.2553 17.6875 24.1157 17.8335 23.9465 17.9379C23.7774 18.0424 23.5844 18.102 23.3858 18.1109C23.1872 18.1199 22.9897 18.0779 22.8118 17.989L17.5 15.3337V10.667Z" fill="#3B82F6"/>
<path d="M3.5 8.33333C3.5 7.71449 3.74583 7.121 4.18342 6.68342C4.621 6.24583 5.21449 6 5.83333 6H15.1667C15.7855 6 16.379 6.24583 16.8166 6.68342C17.2542 7.121 17.5 7.71449 17.5 8.33333V17.6667C17.5 18.2855 17.2542 18.879 16.8166 19.3166C16.379 19.7542 15.7855 20 15.1667 20H5.83333C5.21449 20 4.621 19.7542 4.18342 19.3166C3.74583 18.879 3.5 18.2855 3.5 17.6667V8.33333Z" fill="#3B82F6"/>
</svg>
