<svg width="37" height="36" viewBox="0 0 37 36" fill="none" xmlns="http://www.w3.org/2000/svg">
<path d="M14.001 22.4961L23.001 13.4961" stroke="#959EAF" stroke-width="3" stroke-linecap="round" stroke-linejoin="round"/>
<path d="M16.999 8.99655L17.6935 8.19255C19.1002 6.78604 21.0081 5.99595 22.9973 5.99609C24.9865 5.99623 26.8943 6.78659 28.3008 8.1933C29.7073 9.60001 30.4974 11.5078 30.4972 13.4971C30.4971 15.4863 29.7067 17.394 28.3 18.8006L27.499 19.4966" stroke="#959EAF" stroke-width="3" stroke-linecap="round" stroke-linejoin="round"/>
<path d="M20.0012 27.0039L19.4057 27.8049C17.9826 29.2122 16.0619 30.0015 14.0604 30.0015C12.059 30.0015 10.1383 29.2122 8.71519 27.8049C8.01372 27.1113 7.45683 26.2854 7.07676 25.3751C6.69668 24.4648 6.50098 23.4881 6.50098 22.5017C6.50098 21.5152 6.69668 20.5385 7.07676 19.6282C7.45683 18.7179 8.01372 17.892 8.71519 17.1984L9.50119 16.5039" stroke="#959EAF" stroke-width="3" stroke-linecap="round" stroke-linejoin="round"/>
</svg>
