<svg width="34" height="34" viewBox="0 0 34 34" fill="none" xmlns="http://www.w3.org/2000/svg">
    <path d="M33.5 17C33.5 14.8332 33.0732 12.6876 32.244 10.6857C31.4148 8.68385 30.1994 6.8649 28.6673 5.33274C27.1351 3.80057 25.3161 2.58519 23.3143 1.75599C21.3124 0.926785 19.1668 0.5 17 0.5C14.8332 0.5 12.6876 0.926785 10.6857 1.75599C8.68385 2.58519 6.8649 3.80057 5.33274 5.33274C3.80057 6.8649 2.58519 8.68385 1.75599 10.6857C0.926785 12.6876 0.5 14.8332 0.5 17C0.5 21.3761 2.23839 25.5729 5.33274 28.6673C8.42709 31.7616 12.6239 33.5 17 33.5C21.3761 33.5 25.5729 31.7616 28.6673 28.6673C31.7616 25.5729 33.5 21.3761 33.5 17Z" fill="#3B82F6"/>
    <path d="M18.8335 22.5L13.3335 17L18.8335 11.5" stroke="white" stroke-width="4" stroke-linecap="round" stroke-linejoin="round"/>
</svg>
