<svg width="34" height="34" viewBox="0 0 34 34" fill="none" xmlns="http://www.w3.org/2000/svg">
    <path d="M0.5 17C0.5 19.1668 0.926785 21.3124 1.75599 23.3143C2.58519 25.3161 3.80057 27.1351 5.33274 28.6673C6.8649 30.1994 8.68385 31.4148 10.6857 32.244C12.6876 33.0732 14.8332 33.5 17 33.5C19.1668 33.5 21.3124 33.0732 23.3143 32.244C25.3161 31.4148 27.1351 30.1994 28.6673 28.6673C30.1994 27.1351 31.4148 25.3161 32.244 23.3143C33.0732 21.3124 33.5 19.1668 33.5 17C33.5 12.6239 31.7616 8.42709 28.6673 5.33274C25.5729 2.23839 21.3761 0.5 17 0.5C12.6239 0.5 8.42709 2.23839 5.33274 5.33274C2.23839 8.42709 0.5 12.6239 0.5 17Z" fill="#3B82F6"/>
    <path d="M15.1665 11.5L20.6665 17L15.1665 22.5" stroke="white" stroke-width="4" stroke-linecap="round" stroke-linejoin="round"/>
</svg>
