<svg width="22" height="22" viewBox="0 0 22 22" fill="none" xmlns="http://www.w3.org/2000/svg">
<path d="M22 11C22 17.0751 17.0751 22 11 22C4.92487 22 0 17.0751 0 11C0 4.92487 4.92487 0 11 0C17.0751 0 22 4.92487 22 11Z" fill="#FDA627"/>
<path d="M11.75 4.78516L11.486 12.7547H9.53897L9.25846 4.78516L11.75 4.78516ZM10.562 16.6157C10.144 16.6157 9.79746 16.4892 9.52246 16.2362C9.25847 15.9722 9.12646 15.6477 9.12646 15.2627C9.12646 14.8777 9.25847 14.5587 9.52246 14.3057C9.79746 14.0417 10.144 13.9097 10.562 13.9097C10.969 13.9097 11.3045 14.0417 11.5685 14.3057C11.8325 14.5587 11.9645 14.8777 11.9645 15.2627C11.9645 15.6477 11.8325 15.9722 11.5685 16.2362C11.3045 16.4892 10.969 16.6157 10.562 16.6157Z" fill="white"/>
</svg>
