<svg width="37" height="22" viewBox="0 0 37 22" fill="none" xmlns="http://www.w3.org/2000/svg">
<path d="M7.74854 19.0703C10.9976 20.9869 14.7154 22 18.5 22C22.2847 22 26.0024 20.9869 29.2515 19.0703C32.4038 17.2108 35.0483 14.5493 36.8992 11.3736C37.0336 11.1429 37.0336 10.8572 36.8992 10.6265C35.0483 7.4508 32.4037 4.78926 29.2515 2.92973C26.0024 1.0131 22.2847 0 18.5 0C14.7153 0 10.9975 1.0131 7.74854 2.92973C4.5962 4.78926 1.95165 7.4508 0.100782 10.6265C-0.0335941 10.8572 -0.0335941 11.1429 0.100782 11.3736C1.95165 14.5493 4.5962 17.2108 7.74854 19.0703ZM18.2154 20.5212C13.1382 20.3689 9.05449 16.1566 9.05449 11C9.05449 5.84344 13.1383 1.63114 18.2154 1.47882C18.3103 1.47744 18.4049 1.4741 18.5 1.4741C18.5951 1.4741 18.6897 1.47744 18.7846 1.47882C23.8617 1.63114 27.9455 5.84344 27.9455 11C27.9455 16.1566 23.8617 20.3688 18.7846 20.5212C18.6897 20.5226 18.5951 20.5259 18.5 20.5259C18.4049 20.5259 18.3103 20.5226 18.2154 20.5212ZM35.416 11C33.159 14.6847 29.7909 17.4886 25.9026 19.0709C28.0564 17.0602 29.4072 14.1865 29.4072 11C29.4072 7.81363 28.0564 4.93991 25.9025 2.92924C29.7908 4.51144 33.159 7.31538 35.416 11ZM11.0975 2.92914C8.9436 4.93991 7.59282 7.81363 7.59282 11C7.59282 14.1864 8.9436 17.0601 11.0975 19.0709C7.20918 17.4886 3.8411 14.6848 1.58409 11C3.841 7.31528 7.20908 4.51144 11.0975 2.92914Z" fill="white"/>
<path d="M23 11C23 10.2853 22.8659 9.59329 22.6013 8.94303C22.4476 8.56511 22.0472 8.39703 21.7067 8.56791C21.3665 8.73879 21.2153 9.18372 21.3691 9.56184C21.554 10.0164 21.6478 10.5002 21.6478 11C21.6478 12.9286 20.2357 14.4975 18.5 14.4975C16.7643 14.4975 15.3522 12.9286 15.3522 11C15.3522 9.07144 16.7643 7.50246 18.5 7.50246C18.9497 7.50246 19.3853 7.60663 19.7944 7.81217C20.1347 7.98325 20.5352 7.81508 20.689 7.43706C20.8428 7.05904 20.6916 6.61401 20.3514 6.44313C19.766 6.14904 19.1431 6 18.5 6C16.0187 6 14 8.24308 14 11C14 13.7569 16.0187 16 18.5 16C20.9812 16 23 13.7569 23 11Z" fill="white"/>
</svg>
