<svg width="9" height="3" viewBox="0 0 9 3" fill="none" xmlns="http://www.w3.org/2000/svg">
<path d="M4.50998 2.05543C4.2173 2.05543 3.97118 1.95566 3.77162 1.7561C3.58537 1.55654 3.49224 1.31042 3.49224 1.01774C3.49224 0.725056 3.58537 0.48559 3.77162 0.299337C3.97118 0.0997804 4.2173 0 4.50998 0C4.78936 0 5.02217 0.0997804 5.20843 0.299337C5.40798 0.48559 5.50776 0.725056 5.50776 1.01774C5.50776 1.31042 5.40798 1.55654 5.20843 1.7561C5.02217 1.95566 4.78936 2.05543 4.50998 2.05543ZM8.00222 2.05543C7.70954 2.05543 7.46342 1.95566 7.26386 1.7561C7.07761 1.55654 6.98448 1.31042 6.98448 1.01774C6.98448 0.725056 7.07761 0.48559 7.26386 0.299337C7.46342 0.0997804 7.70954 0 8.00222 0C8.2816 0 8.51441 0.0997804 8.70067 0.299337C8.90022 0.48559 9 0.725056 9 1.01774C9 1.31042 8.90022 1.55654 8.70067 1.7561C8.51441 1.95566 8.2816 2.05543 8.00222 2.05543ZM1.01774 2.05543C0.725055 2.05543 0.478936 1.95566 0.279379 1.7561C0.0931263 1.55654 0 1.31042 0 1.01774C0 0.725056 0.0931263 0.48559 0.279379 0.299337C0.478936 0.0997804 0.725055 0 1.01774 0C1.29712 0 1.52993 0.0997804 1.71619 0.299337C1.91574 0.48559 2.01552 0.725056 2.01552 1.01774C2.01552 1.31042 1.91574 1.55654 1.71619 1.7561C1.52993 1.95566 1.29712 2.05543 1.01774 2.05543Z" fill="#182B50"/>
</svg>
