<svg width="18" height="18" viewBox="0 0 18 18" fill="none" xmlns="http://www.w3.org/2000/svg">
    <path fill-rule="evenodd" clip-rule="evenodd" d="M2.69261 2.29659C3.37367 1.59668 4.47789 1.59668 5.15896 2.29659L15.767 13.1981C16.4481 13.898 16.4481 15.0328 15.767 15.7327C15.0859 16.4326 13.9817 16.4326 13.3006 15.7327L2.69261 4.83117C2.01154 4.13127 2.01154 2.99649 2.69261 2.29659Z" fill="#777777" stroke="white" stroke-width="2" stroke-linecap="round"/>
    <path fill-rule="evenodd" clip-rule="evenodd" d="M2.23317 15.7028C1.55211 15.0029 1.55211 13.8682 2.23317 13.1683L12.8412 2.26673C13.5223 1.56682 14.6265 1.56682 15.3076 2.26673C15.9886 2.96663 15.9886 4.1014 15.3076 4.80131L4.69952 15.7028C4.01846 16.4027 2.91424 16.4027 2.23317 15.7028Z" fill="#777777" stroke="white" stroke-width="2" stroke-linecap="round"/>
</svg>
