<svg width="203" height="76" viewBox="0 0 203 76" fill="none" xmlns="http://www.w3.org/2000/svg">
    <path d="M31 43.9033C31 41.7476 32.8221 40 35.0698 40H198.93C201.178 40 203 41.7476 203 43.9033V71.1331C203 73.2889 201.178 75.0365 198.93 75.0365H35.0698C32.8221 75.0365 31 73.2889 31 71.1331V43.9033Z" fill="#2B3C5C"/>
    <path d="M67.6377 57.2538C67.6377 56.5033 67.8124 55.833 68.1619 55.2428C68.519 54.6453 69.0014 54.1827 69.6091 53.8548C70.2245 53.5196 70.912 53.352 71.6717 53.352C72.5606 53.352 73.3393 53.5706 74.0078 54.0078C74.6764 54.445 75.1436 55.0497 75.4095 55.8221H73.5748C73.3925 55.4578 73.1342 55.1845 72.7999 55.0024C72.4732 54.8202 72.0934 54.7291 71.6603 54.7291C71.1969 54.7291 70.7829 54.8348 70.4182 55.0461C70.0612 55.2501 69.7801 55.5415 69.5749 55.9204C69.3774 56.2993 69.2787 56.7438 69.2787 57.2538C69.2787 57.7566 69.3774 58.201 69.5749 58.5872C69.7801 58.9661 70.0612 59.2612 70.4182 59.4725C70.7829 59.6765 71.1969 59.7785 71.6603 59.7785C72.0934 59.7785 72.4732 59.6874 72.7999 59.5053C73.1342 59.3158 73.3925 59.0389 73.5748 58.6746H75.4095C75.1436 59.4543 74.6764 60.0627 74.0078 60.4998C73.3469 60.9297 72.5682 61.1447 71.6717 61.1447C70.912 61.1447 70.2245 60.9807 69.6091 60.6529C69.0014 60.3177 68.519 59.855 68.1619 59.2648C67.8124 58.6746 67.6377 58.0043 67.6377 57.2538Z" fill="white"/>
    <path d="M78.3675 52.9914V61.0791H76.7721V52.9914H78.3675Z" fill="white"/>
    <path d="M79.5335 58.0298C79.5335 57.4178 79.6589 56.8749 79.9096 56.4013C80.1679 55.9277 80.5135 55.5634 80.9466 55.3084C81.3872 55.0534 81.8772 54.9259 82.4166 54.9259C82.8876 54.9259 83.2979 55.0169 83.6473 55.1991C84.0044 55.3812 84.2893 55.6108 84.502 55.8876V55.0242H86.1088V61.0791H84.502V60.1938C84.2969 60.478 84.012 60.7148 83.6473 60.9042C83.2903 61.0864 82.8762 61.1775 82.4052 61.1775C81.8734 61.1775 81.3872 61.0463 80.9466 60.784C80.5135 60.5217 80.1679 60.1537 79.9096 59.6801C79.6589 59.1992 79.5335 58.6491 79.5335 58.0298ZM84.502 58.0517C84.502 57.6801 84.426 57.3631 84.2741 57.1008C84.1221 56.8312 83.917 56.6272 83.6587 56.4888C83.4004 56.343 83.1231 56.2702 82.8268 56.2702C82.5306 56.2702 82.2571 56.3394 82.0064 56.4778C81.7557 56.6163 81.5505 56.8203 81.391 57.0899C81.2391 57.3522 81.1631 57.6655 81.1631 58.0298C81.1631 58.3941 81.2391 58.7147 81.391 58.9916C81.5505 59.2612 81.7557 59.4688 82.0064 59.6146C82.2647 59.7603 82.5382 59.8331 82.8268 59.8331C83.1231 59.8331 83.4004 59.7639 83.6587 59.6255C83.917 59.4798 84.1221 59.2757 84.2741 59.0134C84.426 58.7439 84.502 58.4233 84.502 58.0517Z" fill="white"/>
    <path d="M90.0828 61.1775C89.5662 61.1775 89.1028 61.09 88.6925 60.9152C88.2823 60.733 87.9556 60.4889 87.7125 60.1829C87.477 59.8769 87.3479 59.5381 87.3251 59.1665H88.9318C88.9622 59.3996 89.08 59.5927 89.2851 59.7457C89.4978 59.8987 89.7599 59.9752 90.0714 59.9752C90.3753 59.9752 90.6108 59.9169 90.7779 59.8004C90.9527 59.6838 91.04 59.5344 91.04 59.3523C91.04 59.1555 90.9337 59.0098 90.721 58.9151C90.5158 58.8131 90.1854 58.7038 89.7295 58.5872C89.2585 58.4779 88.8711 58.365 88.5672 58.2484C88.2709 58.1318 88.0126 57.9533 87.7923 57.7128C87.5796 57.4724 87.4732 57.1482 87.4732 56.7401C87.4732 56.405 87.572 56.0989 87.7695 55.8221C87.9746 55.5452 88.2633 55.3266 88.6356 55.1663C89.0154 55.006 89.4598 54.9259 89.9688 54.9259C90.7209 54.9259 91.3211 55.108 91.7693 55.4723C92.2176 55.8294 92.4645 56.3139 92.5101 56.9259H90.983C90.9603 56.6855 90.8539 56.496 90.664 56.3576C90.4816 56.2119 90.2347 56.139 89.9233 56.139C89.6346 56.139 89.4105 56.19 89.2509 56.292C89.099 56.394 89.023 56.5361 89.023 56.7183C89.023 56.9223 89.1294 57.0789 89.3421 57.1882C89.5548 57.2902 89.8853 57.3959 90.3335 57.5052C90.7893 57.6145 91.1654 57.7274 91.4617 57.844C91.7579 57.9606 92.0124 58.1427 92.2252 58.3905C92.4455 58.6309 92.5594 58.9515 92.567 59.3523C92.567 59.702 92.4645 60.0153 92.2594 60.2922C92.0618 60.5691 91.7731 60.7876 91.3933 60.9479C91.021 61.101 90.5842 61.1775 90.0828 61.1775Z" fill="white"/>
    <path d="M96.2925 61.1775C95.7759 61.1775 95.3125 61.09 94.9022 60.9152C94.492 60.733 94.1653 60.4889 93.9222 60.1829C93.6867 59.8769 93.5576 59.5381 93.5348 59.1665H95.1415C95.1719 59.3996 95.2897 59.5927 95.4948 59.7457C95.7075 59.8987 95.9696 59.9752 96.2811 59.9752C96.585 59.9752 96.8205 59.9169 96.9876 59.8004C97.1624 59.6838 97.2497 59.5344 97.2497 59.3523C97.2497 59.1555 97.1434 59.0098 96.9307 58.9151C96.7255 58.8131 96.3951 58.7038 95.9392 58.5872C95.4682 58.4779 95.0808 58.365 94.7769 58.2484C94.4806 58.1318 94.2223 57.9533 94.002 57.7128C93.7893 57.4724 93.6829 57.1482 93.6829 56.7401C93.6829 56.405 93.7817 56.0989 93.9792 55.8221C94.1843 55.5452 94.473 55.3266 94.8453 55.1663C95.2251 55.006 95.6695 54.9259 96.1785 54.9259C96.9306 54.9259 97.5308 55.108 97.979 55.4723C98.4273 55.8294 98.6742 56.3139 98.7198 56.9259H97.1927C97.17 56.6855 97.0636 56.496 96.8737 56.3576C96.6913 56.2119 96.4444 56.139 96.133 56.139C95.8443 56.139 95.6202 56.19 95.4606 56.292C95.3087 56.394 95.2327 56.5361 95.2327 56.7183C95.2327 56.9223 95.3391 57.0789 95.5518 57.1882C95.7645 57.2902 96.095 57.3959 96.5432 57.5052C96.999 57.6145 97.3751 57.7274 97.6714 57.844C97.9676 57.9606 98.2221 58.1427 98.4349 58.3905C98.6552 58.6309 98.7691 58.9515 98.7767 59.3523C98.7767 59.702 98.6742 60.0153 98.4691 60.2922C98.2715 60.5691 97.9828 60.7876 97.603 60.9479C97.2307 61.101 96.7939 61.1775 96.2925 61.1775Z" fill="white"/>
    <path d="M102.414 57.2538C102.414 56.5033 102.589 55.833 102.938 55.2428C103.295 54.6453 103.778 54.1827 104.386 53.8548C105.001 53.5196 105.689 53.352 106.448 53.352C107.337 53.352 108.116 53.5706 108.784 54.0078C109.453 54.445 109.92 55.0497 110.186 55.8221H108.351C108.169 55.4578 107.911 55.1845 107.576 55.0024C107.25 54.8202 106.87 54.7291 106.437 54.7291C105.973 54.7291 105.559 54.8348 105.195 55.0461C104.838 55.2501 104.557 55.5415 104.351 55.9204C104.154 56.2993 104.055 56.7438 104.055 57.2538C104.055 57.7566 104.154 58.201 104.351 58.5872C104.557 58.9661 104.838 59.2612 105.195 59.4725C105.559 59.6765 105.973 59.7785 106.437 59.7785C106.87 59.7785 107.25 59.6874 107.576 59.5053C107.911 59.3158 108.169 59.0389 108.351 58.6746H110.186C109.92 59.4543 109.453 60.0627 108.784 60.4998C108.123 60.9297 107.345 61.1447 106.448 61.1447C105.689 61.1447 105.001 60.9807 104.386 60.6529C103.778 60.3177 103.295 59.855 102.938 59.2648C102.589 58.6746 102.414 58.0043 102.414 57.2538Z" fill="white"/>
    <path d="M114.352 61.1775C113.744 61.1775 113.197 61.05 112.711 60.7949C112.225 60.5326 111.841 60.1647 111.56 59.6911C111.287 59.2175 111.15 58.671 111.15 58.0517C111.15 57.4323 111.29 56.8859 111.571 56.4123C111.86 55.9386 112.251 55.5743 112.745 55.3193C113.239 55.057 113.79 54.9259 114.398 54.9259C115.005 54.9259 115.556 55.057 116.05 55.3193C116.544 55.5743 116.931 55.9386 117.212 56.4123C117.501 56.8859 117.645 57.4323 117.645 58.0517C117.645 58.671 117.497 59.2175 117.201 59.6911C116.912 60.1647 116.517 60.5326 116.016 60.7949C115.522 61.05 114.967 61.1775 114.352 61.1775ZM114.352 59.8441C114.641 59.8441 114.91 59.7785 115.161 59.6473C115.419 59.5089 115.625 59.3049 115.776 59.0353C115.928 58.7657 116.004 58.4378 116.004 58.0517C116.004 57.476 115.845 57.0352 115.526 56.7292C115.214 56.4159 114.831 56.2592 114.375 56.2592C113.919 56.2592 113.535 56.4159 113.224 56.7292C112.92 57.0352 112.768 57.476 112.768 58.0517C112.768 58.6273 112.916 59.0717 113.212 59.385C113.516 59.6911 113.896 59.8441 114.352 59.8441Z" fill="white"/>
    <path d="M118.405 58.0298C118.405 57.4178 118.531 56.8749 118.781 56.4013C119.04 55.9277 119.389 55.5634 119.83 55.3084C120.27 55.0534 120.76 54.9259 121.3 54.9259C121.71 54.9259 122.101 55.0133 122.474 55.1882C122.846 55.3557 123.142 55.5816 123.362 55.8658V52.9914H124.981V61.0791H123.362V60.1829C123.165 60.4816 122.888 60.7221 122.531 60.9042C122.173 61.0864 121.759 61.1775 121.288 61.1775C120.757 61.1775 120.27 61.0463 119.83 60.784C119.389 60.5217 119.04 60.1537 118.781 59.6801C118.531 59.1992 118.405 58.6491 118.405 58.0298ZM123.374 58.0517C123.374 57.6801 123.298 57.3631 123.146 57.1008C122.994 56.8312 122.789 56.6272 122.531 56.4888C122.272 56.343 121.995 56.2702 121.699 56.2702C121.402 56.2702 121.129 56.3394 120.878 56.4778C120.627 56.6163 120.422 56.8203 120.263 57.0899C120.111 57.3522 120.035 57.6655 120.035 58.0298C120.035 58.3941 120.111 58.7147 120.263 58.9916C120.422 59.2612 120.627 59.4688 120.878 59.6146C121.136 59.7603 121.41 59.8331 121.699 59.8331C121.995 59.8331 122.272 59.7639 122.531 59.6255C122.789 59.4798 122.994 59.2757 123.146 59.0134C123.298 58.7439 123.374 58.4233 123.374 58.0517Z" fill="white"/>
    <path d="M132.407 57.9205C132.407 58.1391 132.392 58.3358 132.362 58.5107H127.747C127.785 58.9479 127.944 59.2903 128.225 59.5381C128.506 59.7858 128.852 59.9097 129.262 59.9097C129.855 59.9097 130.277 59.6656 130.527 59.1774H132.248C132.066 59.7603 131.716 60.2412 131.2 60.6201C130.683 60.9917 130.049 61.1775 129.296 61.1775C128.689 61.1775 128.142 61.05 127.656 60.7949C127.177 60.5326 126.801 60.1647 126.527 59.6911C126.261 59.2175 126.129 58.671 126.129 58.0517C126.129 57.425 126.261 56.8749 126.527 56.4013C126.793 55.9277 127.166 55.5634 127.644 55.3084C128.123 55.0534 128.674 54.9259 129.296 54.9259C129.897 54.9259 130.432 55.0497 130.903 55.2975C131.382 55.5452 131.75 55.8986 132.009 56.3576C132.275 56.8094 132.407 57.3303 132.407 57.9205ZM130.755 57.4833C130.748 57.0899 130.599 56.7766 130.311 56.5434C130.022 56.303 129.669 56.1827 129.251 56.1827C128.856 56.1827 128.522 56.2993 128.248 56.5325C127.982 56.7584 127.819 57.0753 127.758 57.4833H130.755Z" fill="white"/>
    <path d="M134.278 61.1556C133.99 61.1556 133.751 61.0718 133.561 60.9042C133.378 60.7294 133.287 60.5144 133.287 60.2594C133.287 60.0044 133.378 59.7931 133.561 59.6255C133.751 59.4506 133.99 59.3632 134.278 59.3632C134.56 59.3632 134.791 59.4506 134.974 59.6255C135.156 59.7931 135.247 60.0044 135.247 60.2594C135.247 60.5144 135.156 60.7294 134.974 60.9042C134.791 61.0718 134.56 61.1556 134.278 61.1556ZM134.278 56.6308C133.99 56.6308 133.751 56.547 133.561 56.3795C133.378 56.2046 133.287 55.9896 133.287 55.7346C133.287 55.4796 133.378 55.2683 133.561 55.1007C133.751 54.9259 133.99 54.8384 134.278 54.8384C134.56 54.8384 134.791 54.9259 134.974 55.1007C135.156 55.2683 135.247 55.4796 135.247 55.7346C135.247 55.9896 135.156 56.2046 134.974 56.3795C134.791 56.547 134.56 56.6308 134.278 56.6308Z" fill="white"/>
    <path d="M139.099 56.9915C139.099 55.731 139.334 54.7437 139.805 54.0296C140.284 53.3156 141.074 52.9586 142.175 52.9586C143.277 52.9586 144.063 53.3156 144.534 54.0296C145.013 54.7437 145.252 55.731 145.252 56.9915C145.252 58.2593 145.013 59.2539 144.534 59.9752C144.063 60.6966 143.277 61.0572 142.175 61.0572C141.074 61.0572 140.284 60.6966 139.805 59.9752C139.334 59.2539 139.099 58.2593 139.099 56.9915ZM143.68 56.9915C143.68 56.4523 143.642 56.0006 143.566 55.6363C143.497 55.2647 143.353 54.9623 143.133 54.7291C142.92 54.496 142.601 54.3794 142.175 54.3794C141.75 54.3794 141.427 54.496 141.207 54.7291C140.994 54.9623 140.85 55.2647 140.774 55.6363C140.705 56.0006 140.671 56.4523 140.671 56.9915C140.671 57.5453 140.705 58.0116 140.774 58.3905C140.842 58.7621 140.986 59.0644 141.207 59.2976C141.427 59.5235 141.75 59.6364 142.175 59.6364C142.601 59.6364 142.924 59.5235 143.144 59.2976C143.364 59.0644 143.509 58.7621 143.577 58.3905C143.645 58.0116 143.68 57.5453 143.68 56.9915Z" fill="white"/>
    <path d="M146.397 59.5271V58.3249L150.124 53.2099H151.981V58.1937H152.984V59.5271H151.981V61.0791H150.386V59.5271H146.397ZM150.488 54.8494L148.152 58.1937H150.488V54.8494Z" fill="white"/>
    <path d="M154.501 59.3523C155.23 58.7694 155.812 58.2848 156.245 57.8986C156.678 57.5052 157.038 57.0972 157.327 56.6746C157.616 56.252 157.76 55.8366 157.76 55.4286C157.76 55.057 157.669 54.7656 157.487 54.5543C157.304 54.343 157.023 54.2373 156.643 54.2373C156.264 54.2373 155.971 54.3612 155.766 54.6089C155.561 54.8494 155.454 55.1809 155.447 55.6035H153.897C153.927 54.7291 154.197 54.0661 154.706 53.6143C155.223 53.1626 155.876 52.9367 156.666 52.9367C157.532 52.9367 158.197 53.1589 158.66 53.6034C159.124 54.0406 159.356 54.6198 159.356 55.3412C159.356 55.9095 159.196 56.4523 158.877 56.9697C158.558 57.487 158.193 57.9387 157.783 58.3249C157.373 58.7038 156.837 59.1628 156.176 59.702H159.538V60.9698H153.908V59.8331L154.501 59.3523Z" fill="white"/>
    <path d="M160.566 55.21C160.604 54.4814 160.87 53.9204 161.364 53.5269C161.865 53.1262 162.522 52.9258 163.335 52.9258C163.89 52.9258 164.364 53.0205 164.76 53.2099C165.155 53.3921 165.451 53.6435 165.648 53.9641C165.854 54.2774 165.956 54.6344 165.956 55.0352C165.956 55.4942 165.831 55.884 165.58 56.2046C165.337 56.5179 165.044 56.7292 164.703 56.8385V56.8822C165.143 57.0134 165.485 57.2465 165.728 57.5817C165.979 57.9169 166.104 58.3468 166.104 58.8714C166.104 59.3085 165.998 59.6984 165.785 60.0408C165.58 60.3833 165.272 60.6529 164.862 60.8496C164.459 61.039 163.973 61.1337 163.403 61.1337C162.545 61.1337 161.846 60.9261 161.307 60.5108C160.767 60.0955 160.482 59.4834 160.452 58.6746H162.002C162.017 59.0317 162.142 59.3195 162.378 59.5381C162.621 59.7494 162.951 59.855 163.369 59.855C163.757 59.855 164.053 59.753 164.258 59.549C164.471 59.3377 164.577 59.0681 164.577 58.7402C164.577 58.303 164.433 57.9897 164.144 57.8003C163.855 57.6108 163.407 57.5161 162.799 57.5161H162.469V56.2592H162.799C163.878 56.2592 164.418 55.9131 164.418 55.221C164.418 54.9076 164.319 54.6636 164.121 54.4887C163.931 54.3138 163.654 54.2264 163.289 54.2264C162.932 54.2264 162.655 54.3211 162.458 54.5105C162.268 54.6927 162.158 54.9259 162.127 55.21H160.566Z" fill="white"/>
    <path d="M0 3.88889C0 1.74111 1.82481 0 4.07583 0H167.924C170.175 0 172 1.74111 172 3.88889V31.1111C172 33.2589 170.175 35 167.924 35H4.07583C1.82481 35 0 33.2589 0 31.1111V3.88889Z" fill="#182B50"/>
    <path d="M48.9295 15.6916C48.747 15.3783 48.4962 15.1397 48.1769 14.976C47.8576 14.8122 47.4851 14.7303 47.0594 14.7303C46.5881 14.7303 46.17 14.83 45.8051 15.0294C45.4402 15.2287 45.1551 15.5136 44.9499 15.8838C44.7446 16.2541 44.642 16.6814 44.642 17.1656C44.642 17.664 44.7446 18.0984 44.9499 18.4686C45.1627 18.8389 45.4554 19.1237 45.8279 19.3231C46.2004 19.5225 46.6337 19.6222 47.1278 19.6222C47.736 19.6222 48.2339 19.4726 48.6216 19.1736C49.0093 18.8674 49.264 18.4437 49.3856 17.9025H46.6489V16.7597H50.9592V18.0627C50.8528 18.5826 50.6247 19.0632 50.275 19.5047C49.9253 19.9462 49.473 20.3022 48.9181 20.5728C48.3707 20.8362 47.755 20.968 47.0708 20.968C46.303 20.968 45.6075 20.8077 44.9841 20.4873C44.3683 20.1598 43.8818 19.7076 43.5245 19.1308C43.1748 18.5541 43 17.899 43 17.1656C43 16.4321 43.1748 15.777 43.5245 15.2003C43.8818 14.6164 44.3683 14.1642 44.9841 13.8438C45.6075 13.5162 46.2992 13.3525 47.0594 13.3525C47.9564 13.3525 48.7356 13.559 49.397 13.972C50.0584 14.3778 50.5145 14.951 50.7653 15.6916H48.9295Z" fill="white"/>
    <path d="M58.0128 17.8171C58.0128 18.0307 57.9975 18.223 57.9671 18.3939H53.349C53.387 18.8211 53.5466 19.1558 53.8279 19.3979C54.1092 19.64 54.4551 19.761 54.8656 19.761C55.4585 19.761 55.8804 19.5225 56.1313 19.0454H57.8531C57.6707 19.615 57.321 20.085 56.804 20.4553C56.2871 20.8184 55.6524 21 54.8998 21C54.2916 21 53.7443 20.8754 53.2578 20.6262C52.7788 20.3698 52.4025 20.0102 52.1289 19.5474C51.8628 19.0846 51.7298 18.5505 51.7298 17.9453C51.7298 17.3329 51.8628 16.7953 52.1289 16.3324C52.3949 15.8696 52.7674 15.5136 53.2464 15.2644C53.7253 15.0151 54.2764 14.8905 54.8998 14.8905C55.5003 14.8905 56.0363 15.0116 56.5076 15.2537C56.9865 15.4958 57.3552 15.8411 57.6136 16.2897C57.8797 16.7312 58.0128 17.2403 58.0128 17.8171ZM56.3593 17.3899C56.3517 17.0053 56.2035 16.6992 55.9146 16.4713C55.6258 16.2363 55.2723 16.1188 54.8542 16.1188C54.4589 16.1188 54.1244 16.2328 53.8507 16.4606C53.5846 16.6814 53.4212 16.9911 53.3604 17.3899H56.3593Z" fill="white"/>
    <path d="M62.6787 14.9012C63.4312 14.9012 64.0394 15.1255 64.5031 15.5741C64.9668 16.0156 65.1987 16.6351 65.1987 17.4326V20.9039H63.6023V17.6355C63.6023 17.1656 63.4769 16.806 63.226 16.5567C62.9751 16.3004 62.633 16.1722 62.1997 16.1722C61.7588 16.1722 61.4091 16.3004 61.1507 16.5567C60.8998 16.806 60.7744 17.1656 60.7744 17.6355V20.9039H59.178V14.9866H60.7744V15.7236C60.9872 15.4673 61.2571 15.2679 61.584 15.1255C61.9185 14.976 62.2834 14.9012 62.6787 14.9012Z" fill="white"/>
    <path d="M72.5893 17.8171C72.5893 18.0307 72.5741 18.223 72.5436 18.3939H67.9255C67.9635 18.8211 68.1231 19.1558 68.4044 19.3979C68.6857 19.64 69.0316 19.761 69.4421 19.761C70.035 19.761 70.4569 19.5225 70.7078 19.0454H72.4296C72.2472 19.615 71.8975 20.085 71.3806 20.4553C70.8636 20.8184 70.2289 21 69.4763 21C68.8681 21 68.3208 20.8754 67.8343 20.6262C67.3553 20.3698 66.979 20.0102 66.7054 19.5474C66.4393 19.0846 66.3063 18.5505 66.3063 17.9453C66.3063 17.3329 66.4393 16.7953 66.7054 16.3324C66.9714 15.8696 67.3439 15.5136 67.8229 15.2644C68.3018 15.0151 68.8529 14.8905 69.4763 14.8905C70.0768 14.8905 70.6128 15.0116 71.0841 15.2537C71.563 15.4958 71.9317 15.8411 72.1901 16.2897C72.4562 16.7312 72.5893 17.2403 72.5893 17.8171ZM70.9358 17.3899C70.9282 17.0053 70.78 16.6992 70.4911 16.4713C70.2023 16.2363 69.8488 16.1188 69.4307 16.1188C69.0354 16.1188 68.7009 16.2328 68.4272 16.4606C68.1611 16.6814 67.9977 16.9911 67.9369 17.3899H70.9358Z" fill="white"/>
    <path d="M75.3509 15.9052C75.5561 15.5919 75.8222 15.3462 76.1491 15.1682C76.4836 14.9902 76.8637 14.9012 77.2894 14.9012V16.4713H76.8675C76.3657 16.4713 75.9856 16.5817 75.7272 16.8024C75.4763 17.0231 75.3509 17.4077 75.3509 17.9559V20.9039H73.7545V14.9866H75.3509V15.9052Z" fill="white"/>
    <path d="M77.9541 17.9239C77.9541 17.3258 78.0796 16.7953 78.3304 16.3324C78.5889 15.8696 78.9348 15.5136 79.3681 15.2644C79.809 15.0151 80.2993 14.8905 80.839 14.8905C81.3104 14.8905 81.7209 14.9795 82.0705 15.1575C82.4278 15.3356 82.7129 15.5599 82.9258 15.8304V14.9866H84.5336V20.9039H82.9258V20.0387C82.7205 20.3164 82.4354 20.5478 82.0705 20.733C81.7133 20.911 81.299 21 80.8276 21C80.2955 21 79.809 20.8718 79.3681 20.6155C78.9348 20.3591 78.5889 19.9996 78.3304 19.5367C78.0796 19.0668 77.9541 18.5292 77.9541 17.9239ZM82.9258 17.9453C82.9258 17.5821 82.8497 17.2724 82.6977 17.016C82.5457 16.7526 82.3404 16.5532 82.082 16.4179C81.8235 16.2755 81.546 16.2043 81.2495 16.2043C80.9531 16.2043 80.6794 16.2719 80.4285 16.4072C80.1777 16.5425 79.9724 16.7419 79.8128 17.0053C79.6607 17.2617 79.5847 17.5679 79.5847 17.9239C79.5847 18.2799 79.6607 18.5932 79.8128 18.8638C79.9724 19.1273 80.1777 19.3302 80.4285 19.4726C80.687 19.615 80.9607 19.6862 81.2495 19.6862C81.546 19.6862 81.8235 19.6186 82.082 19.4833C82.3404 19.3409 82.5457 19.1415 82.6977 18.8852C82.8497 18.6217 82.9258 18.3084 82.9258 17.9453Z" fill="white"/>
    <path d="M87.9514 16.215V19.0774C87.9514 19.2768 88.0008 19.4228 88.0996 19.5154C88.2061 19.6008 88.3809 19.6435 88.6242 19.6435H89.3653V20.9039H88.3619C87.0164 20.9039 86.3436 20.2915 86.3436 19.0668V16.215H85.591V14.9866H86.3436V13.5234H87.9514V14.9866H89.3653V16.215H87.9514Z" fill="white"/>
    <path d="M96.386 17.8171C96.386 18.0307 96.3708 18.223 96.3404 18.3939H91.7223C91.7603 18.8211 91.9199 19.1558 92.2012 19.3979C92.4825 19.64 92.8283 19.761 93.2388 19.761C93.8318 19.761 94.2537 19.5225 94.5046 19.0454H96.2264C96.044 19.615 95.6943 20.085 95.1773 20.4553C94.6604 20.8184 94.0256 21 93.2731 21C92.6649 21 92.1176 20.8754 91.631 20.6262C91.1521 20.3698 90.7758 20.0102 90.5022 19.5474C90.2361 19.0846 90.1031 18.5505 90.1031 17.9453C90.1031 17.3329 90.2361 16.7953 90.5022 16.3324C90.7682 15.8696 91.1407 15.5136 91.6196 15.2644C92.0986 15.0151 92.6497 14.8905 93.2731 14.8905C93.8736 14.8905 94.4095 15.0116 94.8809 15.2537C95.3598 15.4958 95.7285 15.8411 95.9869 16.2897C96.253 16.7312 96.386 17.2403 96.386 17.8171ZM94.7326 17.3899C94.725 17.0053 94.5768 16.6992 94.2879 16.4713C93.999 16.2363 93.6455 16.1188 93.2274 16.1188C92.8321 16.1188 92.4977 16.2328 92.224 16.4606C91.9579 16.6814 91.7945 16.9911 91.7337 17.3899H94.7326Z" fill="white"/>
    <path d="M99.8578 17.9453C99.8578 17.3329 99.9909 16.7988 100.257 16.3431C100.523 15.8803 100.892 15.5243 101.363 15.275C101.834 15.0187 102.374 14.8905 102.982 14.8905C103.765 14.8905 104.411 15.0757 104.921 15.4459C105.438 15.8091 105.784 16.3218 105.958 16.984H104.237C104.145 16.7276 103.989 16.5283 103.769 16.3858C103.556 16.2363 103.29 16.1615 102.971 16.1615C102.515 16.1615 102.154 16.3182 101.888 16.6315C101.621 16.9377 101.488 17.3756 101.488 17.9453C101.488 18.5078 101.621 18.9457 101.888 19.259C102.154 19.5652 102.515 19.7183 102.971 19.7183C103.617 19.7183 104.039 19.4477 104.237 18.9065H105.958C105.784 19.5474 105.438 20.0565 104.921 20.4339C104.404 20.8113 103.758 21 102.982 21C102.374 21 101.834 20.8754 101.363 20.6262C100.892 20.3698 100.523 20.0138 100.257 19.5581C99.9909 19.0952 99.8578 18.5576 99.8578 17.9453Z" fill="white"/>
    <path d="M109.933 21C109.325 21 108.777 20.8754 108.291 20.6262C107.804 20.3698 107.421 20.0102 107.139 19.5474C106.866 19.0846 106.729 18.5505 106.729 17.9453C106.729 17.34 106.869 16.806 107.151 16.3431C107.44 15.8803 107.831 15.5243 108.325 15.275C108.819 15.0187 109.37 14.8905 109.979 14.8905C110.587 14.8905 111.138 15.0187 111.632 15.275C112.126 15.5243 112.514 15.8803 112.795 16.3431C113.084 16.806 113.228 17.34 113.228 17.9453C113.228 18.5505 113.08 19.0846 112.784 19.5474C112.495 20.0102 112.1 20.3698 111.598 20.6262C111.104 20.8754 110.549 21 109.933 21ZM109.933 19.6969C110.222 19.6969 110.492 19.6328 110.743 19.5047C111.001 19.3694 111.206 19.17 111.358 18.9065C111.51 18.6431 111.586 18.3227 111.586 17.9453C111.586 17.3827 111.427 16.9519 111.107 16.6529C110.796 16.3467 110.412 16.1936 109.956 16.1936C109.5 16.1936 109.116 16.3467 108.804 16.6529C108.5 16.9519 108.348 17.3827 108.348 17.9453C108.348 18.5078 108.496 18.9421 108.793 19.2483C109.097 19.5474 109.477 19.6969 109.933 19.6969Z" fill="white"/>
    <path d="M113.989 17.9239C113.989 17.3258 114.114 16.7953 114.365 16.3324C114.624 15.8696 114.973 15.5136 115.414 15.2644C115.855 15.0151 116.346 14.8905 116.885 14.8905C117.296 14.8905 117.687 14.976 118.06 15.1469C118.432 15.3106 118.729 15.5314 118.949 15.8091V13H120.568V20.9039H118.949V20.028C118.752 20.32 118.474 20.555 118.117 20.733C117.759 20.911 117.345 21 116.874 21C116.342 21 115.855 20.8718 115.414 20.6155C114.973 20.3591 114.624 19.9996 114.365 19.5367C114.114 19.0668 113.989 18.5292 113.989 17.9239ZM118.961 17.9453C118.961 17.5821 118.885 17.2724 118.733 17.016C118.58 16.7526 118.375 16.5532 118.117 16.4179C117.858 16.2755 117.581 16.2043 117.284 16.2043C116.988 16.2043 116.714 16.2719 116.463 16.4072C116.212 16.5425 116.007 16.7419 115.848 17.0053C115.696 17.2617 115.62 17.5679 115.62 17.9239C115.62 18.2799 115.696 18.5932 115.848 18.8638C116.007 19.1273 116.212 19.3302 116.463 19.4726C116.722 19.615 116.995 19.6862 117.284 19.6862C117.581 19.6862 117.858 19.6186 118.117 19.4833C118.375 19.3409 118.58 19.1415 118.733 18.8852C118.885 18.6217 118.961 18.3084 118.961 17.9453Z" fill="white"/>
    <path d="M128 17.8171C128 18.0307 127.985 18.223 127.954 18.3939H123.336C123.374 18.8211 123.534 19.1558 123.815 19.3979C124.096 19.64 124.442 19.761 124.853 19.761C125.446 19.761 125.868 19.5225 126.119 19.0454H127.84C127.658 19.615 127.308 20.085 126.791 20.4553C126.274 20.8184 125.64 21 124.887 21C124.279 21 123.732 20.8754 123.245 20.6262C122.766 20.3698 122.39 20.0102 122.116 19.5474C121.85 19.0846 121.717 18.5505 121.717 17.9453C121.717 17.3329 121.85 16.7953 122.116 16.3324C122.382 15.8696 122.755 15.5136 123.234 15.2644C123.713 15.0151 124.264 14.8905 124.887 14.8905C125.488 14.8905 126.024 15.0116 126.495 15.2537C126.974 15.4958 127.342 15.8411 127.601 16.2897C127.867 16.7312 128 17.2403 128 17.8171ZM126.347 17.3899C126.339 17.0053 126.191 16.6992 125.902 16.4713C125.613 16.2363 125.26 16.1188 124.841 16.1188C124.446 16.1188 124.112 16.2328 123.838 16.4606C123.572 16.6814 123.408 16.9911 123.348 17.3899H126.347Z" fill="white"/>
</svg>
