<?xml version="1.0" encoding="UTF-8"?>
<svg id="Layer_2" data-name="Layer 2" xmlns="http://www.w3.org/2000/svg" viewBox="0 0 24.09 24.09">
  <defs>
    <style>
      .cls-1 {
        stroke: #3B82F6;
        stroke-miterlimit: 10;
      }
    </style>
  </defs>
  <g id="Layer_1-2" data-name="Layer 1" fill="#3B82F6">
    <path class="cls-1" d="M14.39,12.05L23.45,2.99c.19-.19,.19-.5,0-.69l-1.66-1.66c-.19-.19-.5-.19-.69,0L12.05,9.7,2.99,.64c-.19-.19-.5-.19-.69,0L.64,2.3c-.19,.19-.19,.5,0,.69L9.7,12.05,.64,21.1c-.19,.19-.19,.5,0,.69l1.66,1.66c.19,.19,.5,.19,.69,0L12.05,14.39l9.05,9.05c.19,.19,.5,.19,.69,0l1.66-1.66c.19-.19,.19-.5,0-.69L14.39,12.05Z"/>
  </g>
</svg>