<?xml version="1.0" encoding="UTF-8"?>
<svg id="Layer_2" data-name="Layer 2" xmlns="http://www.w3.org/2000/svg" viewBox="0 0 52.55 37.01">
  <defs>
    <style>
      .cls-1, .cls-2 {
        stroke: #3B82F6;
        stroke-miterlimit: 10;
      }

      .cls-2 {
        fill: none;
        stroke-width: 3.5px;
      }
    </style>
  </defs>
  <g id="Layer_1-2" data-name="Layer 1" fill="#3B82F6">
    <path class="cls-1" d="M44.18,18.85l7.75-7.75c.16-.16,.16-.43,0-.59l-1.42-1.42c-.16-.16-.43-.16-.59,0l-7.75,7.75-7.75-7.75c-.16-.16-.43-.16-.59,0l-1.42,1.42c-.16,.16-.16,.43,0,.59l7.75,7.75-7.75,7.75c-.16,.16-.16,.43,0,.59l1.42,1.42c.16,.16,.43,.16,.59,0l7.75-7.75,7.75,7.75c.16,.16,.43,.16,.59,0l1.42-1.42c.16-.16,.16-.43,0-.59l-7.75-7.75Z"/>
    <path class="cls-2" d="M1.75,10.13V27.24c0,.11,.09,.2,.2,.2H12.15s.09,.01,.12,.04l10.09,7.73c.13,.1,.33,0,.33-.16V1.95c0-.18-.21-.27-.34-.15L13.06,9.97s-.09,.05-.14,.05l-10.97-.1c-.11,0-.21,.09-.21,.2Z"/>
  </g>
</svg>