<svg width="16" height="17" viewBox="0 0 16 17" fill="none" xmlns="http://www.w3.org/2000/svg">
<rect y="5.125" width="1.65625" height="5.78125" rx="0.828125" fill="#D9D9D9"/>
<rect x="4.75" y="4.125" width="1.65625" height="7.8125" rx="0.828125" fill="#D9D9D9"/>
<rect x="2.375" y="3.0625" width="1.65625" height="9.875" rx="0.828125" fill="#D9D9D9"/>
<path d="M7.21875 2.89062C7.21875 2.43326 7.58951 2.0625 8.04688 2.0625C8.50424 2.0625 8.875 2.43326 8.875 2.89062V13.1719C8.875 13.6292 8.50424 14 8.04688 14C7.58951 14 7.21875 13.6292 7.21875 13.1719V2.89062Z" fill="#D9D9D9"/>
<path d="M11.9688 3.89062C11.9688 3.43326 12.3395 3.0625 12.7969 3.0625C13.2542 3.0625 13.625 3.43326 13.625 3.89062V12.1094C13.625 12.5667 13.2542 12.9375 12.7969 12.9375C12.3395 12.9375 11.9688 12.5667 11.9688 12.1094V3.89062Z" fill="#D9D9D9"/>
<path d="M14.3438 6.98438C14.3438 6.52701 14.7145 6.15625 15.1719 6.15625C15.6292 6.15625 16 6.52701 16 6.98438V9.04688C16 9.50424 15.6292 9.875 15.1719 9.875C14.7145 9.875 14.3438 9.50424 14.3438 9.04688V6.98438Z" fill="#D9D9D9"/>
<path d="M9.59375 0.828125C9.59375 0.370764 9.96451 0 10.4219 0C10.8792 0 11.25 0.370764 11.25 0.828125V15.2031C11.25 15.6605 10.8792 16.0312 10.4219 16.0312C9.96451 16.0312 9.59375 15.6605 9.59375 15.2031V0.828125Z" fill="#D9D9D9"/>
</svg>
