<?xml version="1.0" encoding="UTF-8"?>
<svg id="Layer_2" data-name="Layer 2" xmlns="http://www.w3.org/2000/svg" viewBox="0 0 51.55 36.01">
  <defs>
    <style>
      .cls-1 {
        fill: none;
        stroke: #3B82F6;
        stroke-miterlimit: 10;
        stroke-width: 2.5px;
      }
    </style>
  </defs>
  <g id="Layer_1-2" data-name="Layer 1" fill="#3B82F6">
    <path d="M43.68,18.35l7.75-7.75c.16-.16,.16-.43,0-.59l-1.42-1.42c-.16-.16-.43-.16-.59,0l-7.75,7.75-7.75-7.75c-.16-.16-.43-.16-.59,0l-1.42,1.42c-.16,.16-.16,.43,0,.59l7.75,7.75-7.75,7.75c-.16,.16-.16,.43,0,.59l1.42,1.42c.16,.16,.43,.16,.59,0l7.75-7.75,7.75,7.75c.16,.16,.43,.16,.59,0l1.42-1.42c.16-.16,.16-.43,0-.59l-7.75-7.75Z"/>
    <path class="cls-1" d="M1.25,9.63V26.74c0,.11,.09,.2,.2,.2H11.65s.09,.01,.12,.04l10.09,7.73c.13,.1,.33,0,.33-.16V1.45c0-.18-.21-.27-.34-.15L12.56,9.47s-.09,.05-.14,.05l-10.97-.1c-.11,0-.21,.09-.21,.2Z"/>
  </g>
</svg>
