<svg width="26" height="24" viewBox="0 0 26 24" fill="none" xmlns="http://www.w3.org/2000/svg">
    <path d="M2 3.25C2 2.91848 2.12877 2.60054 2.35798 2.36612C2.58719 2.1317 2.89807 2 3.22222 2H22.7778C23.1019 2 23.4128 2.1317 23.642 2.36612C23.8712 2.60054 24 2.91848 24 3.25V15.75C24 16.0815 23.8712 16.3995 23.642 16.6339C23.4128 16.8683 23.1019 17 22.7778 17H3.22222C2.89807 17 2.58719 16.8683 2.35798 16.6339C2.12877 16.3995 2 16.0815 2 15.75V3.25Z" stroke-width="2.5" stroke-linecap="round" stroke-linejoin="round"/>
    <path d="M8.00049 22L18 21.9998" stroke-width="2.5" stroke-linecap="round" stroke-linejoin="round"/>
    <path d="M9.25 17V22" stroke-width="2.5" stroke-linecap="round" stroke-linejoin="round"/>
    <path d="M16.75 17V22" stroke-width="2.5" stroke-linecap="round" stroke-linejoin="round"/>
</svg>
