<svg width="17" height="17" viewBox="0 0 17 17" fill="none" xmlns="http://www.w3.org/2000/svg">
    <path fill-rule="evenodd" clip-rule="evenodd" d="M15.1933 1.29977L14.5466 3.88677C14.4678 4.20194 14.6594 4.52131 14.9746 4.60011C15.2898 4.6789 15.6091 4.48727 15.6879 4.1721L16.4525 1.1139C16.6133 0.470739 16.0339 -0.113381 15.3894 0.042175L12.3322 0.780135C12.0164 0.856363 11.8222 1.17417 11.8984 1.48997C11.9746 1.80578 12.2924 1.99999 12.6082 1.92376L15.1933 1.29977Z" fill="#3B82F6"/>
    <path fill-rule="evenodd" clip-rule="evenodd" d="M0.412109 2.85293C0.412109 2.36562 0.807153 1.97058 1.29446 1.97058H9.52976C9.85463 1.97058 10.118 2.23394 10.118 2.55882C10.118 2.88369 9.85463 3.14705 9.52976 3.14705H1.58858V14.9118H13.3533V7.2647C13.3533 6.93983 13.6166 6.67646 13.9415 6.67646C14.2664 6.67646 14.5298 6.93983 14.5298 7.2647V15.2059C14.5298 15.6932 14.1347 16.0882 13.6474 16.0882H1.29446C0.807153 16.0882 0.412109 15.6932 0.412109 15.2059V2.85293Z" fill="#3B82F6"/>
    <path fill-rule="evenodd" clip-rule="evenodd" d="M16.2684 0.378162C16.4981 0.607882 16.4981 0.980332 16.2684 1.21005L6.12137 11.3571C5.89165 11.5868 5.5192 11.5868 5.28948 11.3571C5.05976 11.1274 5.05976 10.7549 5.28948 10.5252L15.4365 0.378162C15.6663 0.148442 16.0387 0.148442 16.2684 0.378162Z" fill="#3B82F6"/>
</svg>
