<svg width="32" height="32" viewBox="0 0 32 32" fill="none" xmlns="http://www.w3.org/2000/svg">
<path d="M7 17.3337C7 16.6264 7.28095 15.9481 7.78105 15.448C8.28115 14.9479 8.95942 14.667 9.66667 14.667H23C23.7072 14.667 24.3855 14.9479 24.8856 15.448C25.3857 15.9481 25.6667 16.6264 25.6667 17.3337V25.3337C25.6667 26.0409 25.3857 26.7192 24.8856 27.2193C24.3855 27.7194 23.7072 28.0003 23 28.0003H9.66667C8.95942 28.0003 8.28115 27.7194 7.78105 27.2193C7.28095 26.7192 7 26.0409 7 25.3337V17.3337Z" stroke="white" stroke-width="2.5" stroke-linecap="round" stroke-linejoin="round"/>
<path d="M15 21.3333C15 21.687 15.1405 22.0261 15.3905 22.2761C15.6406 22.5262 15.9797 22.6667 16.3333 22.6667C16.687 22.6667 17.0261 22.5262 17.2761 22.2761C17.5262 22.0261 17.6667 21.687 17.6667 21.3333C17.6667 20.9797 17.5262 20.6406 17.2761 20.3905C17.0261 20.1405 16.687 20 16.3333 20C15.9797 20 15.6406 20.1405 15.3905 20.3905C15.1405 20.6406 15 20.9797 15 21.3333Z" stroke="white" stroke-width="2.5" stroke-linecap="round" stroke-linejoin="round"/>
<path d="M11 14.6667V9.33333C11 7.91885 11.5619 6.56229 12.5621 5.5621C13.5623 4.5619 14.9188 4 16.3333 4C17.7478 4 19.1044 4.5619 20.1046 5.5621C21.1048 6.56229 21.6667 7.91885 21.6667 9.33333V14.6667" stroke="white" stroke-width="2.5" stroke-linecap="round" stroke-linejoin="round"/>
</svg>
