<svg width="32" height="32" viewBox="0 0 32 32" fill="none" xmlns="http://www.w3.org/2000/svg">
<path d="M5 6.33333C5 5.97971 5.14048 5.64057 5.39052 5.39052C5.64057 5.14048 5.97971 5 6.33333 5H11.6667C12.0203 5 12.3594 5.14048 12.6095 5.39052C12.8595 5.64057 13 5.97971 13 6.33333V11.6667C13 12.0203 12.8595 12.3594 12.6095 12.6095C12.3594 12.8595 12.0203 13 11.6667 13H6.33333C5.97971 13 5.64057 12.8595 5.39052 12.6095C5.14048 12.3594 5 12.0203 5 11.6667V6.33333Z" stroke="white" stroke-width="2.5" stroke-linecap="round" stroke-linejoin="round"/>
<path d="M18.3333 6.33333C18.3333 5.97971 18.4737 5.64057 18.7238 5.39052C18.9738 5.14048 19.313 5 19.6666 5H24.9999C25.3535 5 25.6927 5.14048 25.9427 5.39052C26.1928 5.64057 26.3333 5.97971 26.3333 6.33333V11.6667C26.3333 12.0203 26.1928 12.3594 25.9427 12.6095C25.6927 12.8595 25.3535 13 24.9999 13H19.6666C19.313 13 18.9738 12.8595 18.7238 12.6095C18.4737 12.3594 18.3333 12.0203 18.3333 11.6667V6.33333Z" stroke="white" stroke-width="2.5" stroke-linecap="round" stroke-linejoin="round"/>
<path d="M5 19.6663C5 19.3127 5.14048 18.9736 5.39052 18.7235C5.64057 18.4735 5.97971 18.333 6.33333 18.333H11.6667C12.0203 18.333 12.3594 18.4735 12.6095 18.7235C12.8595 18.9736 13 19.3127 13 19.6663V24.9997C13 25.3533 12.8595 25.6924 12.6095 25.9425C12.3594 26.1925 12.0203 26.333 11.6667 26.333H6.33333C5.97971 26.333 5.64057 26.1925 5.39052 25.9425C5.14048 25.6924 5 25.3533 5 24.9997V19.6663Z" stroke="white" stroke-width="2.5" stroke-linecap="round" stroke-linejoin="round"/>
<path d="M20.3335 19H25.6668V24.3333" stroke="white" stroke-width="2.5" stroke-linecap="round" stroke-linejoin="round"/>
<path d="M19 25.6667L25.6667 19" stroke="white" stroke-width="2.5" stroke-linecap="round" stroke-linejoin="round"/>
</svg>
