<svg width="15" height="16" viewBox="0 0 15 16" fill="none" xmlns="http://www.w3.org/2000/svg">
<path d="M7.5 0C6.67591 0 5.87033 0.244371 5.18512 0.70221C4.49992 1.16005 3.96587 1.81079 3.6505 2.57215C3.33514 3.33351 3.25262 4.17129 3.41339 4.97954C3.57417 5.7878 3.971 6.53023 4.55372 7.11294C5.13644 7.69566 5.87887 8.0925 6.68712 8.25327C7.49538 8.41404 8.33315 8.33153 9.09451 8.01616C9.85587 7.7008 10.5066 7.16675 10.9645 6.48154C11.4223 5.79634 11.6667 4.99076 11.6667 4.16667C11.6667 3.0616 11.2277 2.00179 10.4463 1.22039C9.66488 0.438987 8.60507 0 7.5 0ZM7.5 6.66667C7.00555 6.66667 6.5222 6.52004 6.11107 6.24534C5.69995 5.97064 5.37952 5.58019 5.1903 5.12337C5.00108 4.66656 4.95157 4.16389 5.04804 3.67894C5.1445 3.19399 5.3826 2.74853 5.73223 2.3989C6.08186 2.04927 6.52732 1.81117 7.01227 1.7147C7.49723 1.61824 7.99989 1.66775 8.45671 1.85697C8.91352 2.04619 9.30397 2.36662 9.57867 2.77774C9.85338 3.18886 10 3.67221 10 4.16667C10 4.82971 9.73661 5.46559 9.26777 5.93443C8.79893 6.40327 8.16304 6.66667 7.5 6.66667ZM15 15.8333V15C15 13.4529 14.3854 11.9692 13.2915 10.8752C12.1975 9.78125 10.7138 9.16667 9.16667 9.16667H5.83333C4.28624 9.16667 2.80251 9.78125 1.70854 10.8752C0.614581 11.9692 0 13.4529 0 15V15.8333H1.66667V15C1.66667 13.8949 2.10565 12.8351 2.88705 12.0537C3.66846 11.2723 4.72826 10.8333 5.83333 10.8333H9.16667C10.2717 10.8333 11.3315 11.2723 12.1129 12.0537C12.8943 12.8351 13.3333 13.8949 13.3333 15V15.8333H15Z" fill="white"/>
</svg>
