<svg width="17" height="17" viewBox="0 0 17 17" fill="none" xmlns="http://www.w3.org/2000/svg">
<path d="M7.08333 8.70833H2.83333C2.77808 8.70833 2.72509 8.68638 2.68602 8.64731C2.64695 8.60824 2.625 8.55525 2.625 8.5V2.83333C2.625 2.77808 2.64695 2.72509 2.68602 2.68602C2.72509 2.64695 2.77808 2.625 2.83333 2.625H7.08333C7.13859 2.625 7.19158 2.64695 7.23065 2.68602C7.26972 2.72509 7.29167 2.77808 7.29167 2.83333V8.5C7.29167 8.55525 7.26972 8.60824 7.23065 8.64731C7.19158 8.68638 7.13859 8.70833 7.08333 8.70833ZM2.68602 14.314C2.64695 14.2749 2.625 14.2219 2.625 14.1667V11.3333C2.625 11.2781 2.64695 11.2251 2.68602 11.186C2.72509 11.1469 2.77808 11.125 2.83333 11.125H7.08333C7.13859 11.125 7.19158 11.1469 7.23065 11.186C7.26972 11.2251 7.29167 11.2781 7.29167 11.3333V14.1667C7.29167 14.2219 7.26972 14.2749 7.23065 14.314C7.19158 14.3531 7.13859 14.375 7.08333 14.375H2.83333C2.77808 14.375 2.72509 14.3531 2.68602 14.314ZM9.76935 14.314C9.73028 14.2749 9.70833 14.2219 9.70833 14.1667V9.20833C9.70833 9.15308 9.73028 9.10009 9.76935 9.06102C9.80842 9.02195 9.86141 9 9.91667 9H14.1667C14.2219 9 14.2749 9.02195 14.314 9.06102C14.3531 9.10009 14.375 9.15308 14.375 9.20833V14.1667C14.375 14.2219 14.3531 14.2749 14.314 14.314C14.2749 14.3531 14.2219 14.375 14.1667 14.375H9.91667C9.86141 14.375 9.80842 14.3531 9.76935 14.314ZM14.1667 6.58333H9.91667C9.86141 6.58333 9.80842 6.56138 9.76935 6.52231C9.73028 6.48324 9.70833 6.43025 9.70833 6.375V2.83333C9.70833 2.77808 9.73028 2.72509 9.76935 2.68602C9.80842 2.64695 9.86141 2.625 9.91667 2.625H14.1667C14.2219 2.625 14.2749 2.64695 14.314 2.68602C14.3531 2.72509 14.375 2.77808 14.375 2.83333V6.375C14.375 6.43025 14.3531 6.48324 14.314 6.52231C14.2749 6.56138 14.2219 6.58333 14.1667 6.58333Z" stroke="white"/>
</svg>
