<svg width="19" height="19" viewBox="0 0 19 19" fill="none" xmlns="http://www.w3.org/2000/svg">
<path d="M9.49967 12.6666C11.2461 12.6666 12.6663 11.2464 12.6663 9.49998C12.6663 7.75356 11.2461 6.33331 9.49967 6.33331C7.75326 6.33331 6.33301 7.75356 6.33301 9.49998C6.33301 11.2464 7.75326 12.6666 9.49967 12.6666ZM9.49967 7.91665C10.3578 7.91665 11.083 8.64181 11.083 9.49998C11.083 10.3581 10.3578 11.0833 9.49967 11.0833C8.64151 11.0833 7.91634 10.3581 7.91634 9.49998C7.91634 8.64181 8.64151 7.91665 9.49967 7.91665Z" fill="white"/>
<path d="M2.25207 12.7743L3.04374 14.1439C3.46411 14.8699 4.47586 15.1422 5.20499 14.7218L5.62378 14.4796C6.08179 14.8398 6.58677 15.136 7.12478 15.3599V15.8333C7.12478 16.7065 7.8349 17.4166 8.70811 17.4166H10.2914C11.1647 17.4166 11.8748 16.7065 11.8748 15.8333V15.3599C12.4126 15.136 12.9175 14.8401 13.3758 14.4804L13.7946 14.7226C14.5253 15.1422 15.5347 14.8714 15.9566 14.1439L16.7475 12.7751C16.9573 12.4115 17.0142 11.9795 16.9057 11.5739C16.7972 11.1684 16.5321 10.8225 16.1688 10.6123L15.769 10.3811C15.854 9.79729 15.854 9.20425 15.769 8.62044L16.1688 8.38927C16.532 8.17887 16.7969 7.83299 16.9054 7.42752C17.0139 7.02205 16.9571 6.5901 16.7475 6.22644L15.9566 4.85765C15.5362 4.12931 14.5253 3.85619 13.7946 4.27815L13.3758 4.5204C12.9178 4.16011 12.4128 3.86394 11.8748 3.64006V3.16665C11.8748 2.29344 11.1647 1.58331 10.2914 1.58331H8.70811C7.8349 1.58331 7.12478 2.29344 7.12478 3.16665V3.64006C6.58695 3.86398 6.08201 4.15986 5.62378 4.5196L5.20499 4.27735C4.47349 3.85698 3.46332 4.12931 3.04295 4.85685L2.25207 6.22565C2.04226 6.58926 1.98537 7.02128 2.09388 7.42681C2.20238 7.83235 2.46743 8.17823 2.83078 8.38848L3.23057 8.61965C3.14525 9.20317 3.14525 9.796 3.23057 10.3795L2.83078 10.6107C2.46753 10.8212 2.20261 11.1673 2.09413 11.5729C1.98564 11.9785 2.04244 12.4105 2.25207 12.7743ZM4.88515 10.5909C4.79576 10.2341 4.7503 9.86777 4.74978 9.49998C4.74978 9.13423 4.7957 8.7669 4.88436 8.40906C4.92612 8.24228 4.91238 8.06643 4.84524 7.90816C4.7781 7.74988 4.66121 7.61779 4.51228 7.5319L3.62324 7.01731L4.41332 5.64852L5.31978 6.1726C5.4676 6.25814 5.63918 6.29343 5.80877 6.27316C5.97835 6.25289 6.13678 6.17816 6.26028 6.06019C6.79586 5.55079 7.44171 5.17179 8.14761 4.95265C8.30976 4.90314 8.45174 4.80289 8.55264 4.66664C8.65354 4.53039 8.70804 4.36535 8.70811 4.19581V3.16665H10.2914V4.19581C10.2915 4.36535 10.346 4.53039 10.4469 4.66664C10.5478 4.80289 10.6898 4.90314 10.8519 4.95265C11.5577 5.1721 12.2035 5.55107 12.7393 6.06019C12.8629 6.17793 13.0213 6.2525 13.1908 6.27276C13.3604 6.29303 13.5319 6.25789 13.6798 6.1726L14.5854 5.64931L15.3771 7.0181L14.4873 7.5319C14.3384 7.61789 14.2216 7.74999 14.1545 7.90823C14.0874 8.06648 14.0736 8.24228 14.1152 8.40906C14.2039 8.7669 14.2498 9.13423 14.2498 9.49998C14.2498 9.86494 14.2039 10.2323 14.1144 10.5909C14.0729 10.7578 14.0868 10.9336 14.154 11.0919C14.2213 11.2501 14.3383 11.3822 14.4873 11.4681L15.3763 11.9819L14.5862 13.3506L13.6798 12.8274C13.532 12.7417 13.3604 12.7063 13.1908 12.7266C13.0212 12.7469 12.8627 12.8217 12.7393 12.9398C12.2037 13.4492 11.5579 13.8282 10.8519 14.0473C10.6898 14.0968 10.5478 14.1971 10.4469 14.3333C10.346 14.4696 10.2915 14.6346 10.2914 14.8041L10.293 15.8333H8.70811V14.8041C8.70804 14.6346 8.65354 14.4696 8.55264 14.3333C8.45174 14.1971 8.30976 14.0968 8.14761 14.0473C7.44185 13.8279 6.79606 13.4489 6.26028 12.9398C6.13702 12.8213 5.97849 12.7464 5.80875 12.7262C5.63901 12.7061 5.46733 12.7419 5.31978 12.8281L4.41411 13.3522L3.62245 11.9834L4.51228 11.4681C4.66127 11.3822 4.77824 11.2501 4.84551 11.0919C4.91279 10.9336 4.9267 10.7578 4.88515 10.5909Z" fill="white"/>
</svg>
