<svg width="15" height="15" viewBox="0 0 15 15" fill="none" xmlns="http://www.w3.org/2000/svg">
<path fill-rule="evenodd" clip-rule="evenodd" d="M4.94118 0.705882H2.11765C1.33795 0.705882 0.705882 1.33795 0.705882 2.11765V4.94118C0.705882 5.72087 1.33795 6.35294 2.11765 6.35294H4.94118C5.72087 6.35294 6.35294 5.72087 6.35294 4.94118V2.11765C6.35294 1.33795 5.72087 0.705882 4.94118 0.705882ZM2.11765 0C0.948103 0 0 0.948103 0 2.11765V4.94118C0 6.11072 0.948103 7.05882 2.11765 7.05882H4.94118C6.11072 7.05882 7.05882 6.11072 7.05882 4.94118V2.11765C7.05882 0.948103 6.11072 0 4.94118 0H2.11765Z" fill="white"/>
<path fill-rule="evenodd" clip-rule="evenodd" d="M12.8826 0.705882H10.0591C9.27936 0.705882 8.64729 1.33795 8.64729 2.11765V4.94118C8.64729 5.72087 9.27936 6.35294 10.0591 6.35294H12.8826C13.6623 6.35294 14.2943 5.72087 14.2943 4.94118V2.11765C14.2943 1.33795 13.6623 0.705882 12.8826 0.705882ZM10.0591 0C8.88951 0 7.94141 0.948103 7.94141 2.11765V4.94118C7.94141 6.11072 8.88951 7.05882 10.0591 7.05882H12.8826C14.0521 7.05882 15.0002 6.11072 15.0002 4.94118V2.11765C15.0002 0.948103 14.0521 0 12.8826 0H10.0591Z" fill="white"/>
<path fill-rule="evenodd" clip-rule="evenodd" d="M4.94118 8.64729H2.11765C1.33795 8.64729 0.705882 9.27936 0.705882 10.0591V12.8826C0.705882 13.6623 1.33795 14.2943 2.11765 14.2943H4.94118C5.72087 14.2943 6.35294 13.6623 6.35294 12.8826V10.0591C6.35294 9.27936 5.72087 8.64729 4.94118 8.64729ZM2.11765 7.94141C0.948103 7.94141 0 8.88951 0 10.0591V12.8826C0 14.0521 0.948103 15.0002 2.11765 15.0002H4.94118C6.11072 15.0002 7.05882 14.0521 7.05882 12.8826V10.0591C7.05882 8.88951 6.11072 7.94141 4.94118 7.94141H2.11765Z" fill="white"/>
<path fill-rule="evenodd" clip-rule="evenodd" d="M12.8826 8.64729H10.0591C9.27936 8.64729 8.64729 9.27936 8.64729 10.0591V12.8826C8.64729 13.6623 9.27936 14.2943 10.0591 14.2943H12.8826C13.6623 14.2943 14.2943 13.6623 14.2943 12.8826V10.0591C14.2943 9.27936 13.6623 8.64729 12.8826 8.64729ZM10.0591 7.94141C8.88951 7.94141 7.94141 8.88951 7.94141 10.0591V12.8826C7.94141 14.0521 8.88951 15.0002 10.0591 15.0002H12.8826C14.0521 15.0002 15.0002 14.0521 15.0002 12.8826V10.0591C15.0002 8.88951 14.0521 7.94141 12.8826 7.94141H10.0591Z" fill="white"/>
</svg>
