<svg width="32" height="32" viewBox="0 0 32 32" fill="none" xmlns="http://www.w3.org/2000/svg">
<path d="M10.667 9.33333C10.667 10.7478 11.2289 12.1044 12.2291 13.1046C13.2293 14.1048 14.5858 14.6667 16.0003 14.6667C17.4148 14.6667 18.7714 14.1048 19.7716 13.1046C20.7718 12.1044 21.3337 10.7478 21.3337 9.33333C21.3337 7.91885 20.7718 6.56229 19.7716 5.5621C18.7714 4.5619 17.4148 4 16.0003 4C14.5858 4 13.2293 4.5619 12.2291 5.5621C11.2289 6.56229 10.667 7.91885 10.667 9.33333Z" stroke="#959EAF" stroke-width="2.5" stroke-linecap="round" stroke-linejoin="round"/>
<path d="M8 26.6665V23.9998C8 22.5853 8.5619 21.2288 9.5621 20.2286C10.5623 19.2284 11.9188 18.6665 13.3333 18.6665H18.6667C20.0812 18.6665 21.4377 19.2284 22.4379 20.2286C23.4381 21.2288 24 22.5853 24 23.9998V26.6665" stroke="#959EAF" stroke-width="2.5" stroke-linecap="round" stroke-linejoin="round"/>
</svg>
