<svg width="706" height="170" viewBox="0 0 706 170" fill="none" xmlns="http://www.w3.org/2000/svg">
<g opacity="0.5">
<path d="M704.637 118.32H0V144.16H704.637V118.32Z" fill="#667081"/>
</g>
<mask id="mask0_3121_14345" style="mask-type:luminance" maskUnits="userSpaceOnUse" x="0" y="72" width="705" height="67">
<path d="M704.798 72.5264H0V138.123H704.798V72.5264Z" fill="white"/>
</mask>
<g mask="url(#mask0_3121_14345)">
<g filter="url(#filter0_d_3121_14345)">
<path d="M704.798 72.5264H0V138.123H704.798V72.5264Z" fill="white"/>
</g>
<path d="M614.683 131.923C629.738 131.923 641.942 119.745 641.942 104.723C641.942 89.7008 629.738 77.5229 614.683 77.5229C599.629 77.5229 587.425 89.7008 587.425 104.723C587.425 119.745 599.629 131.923 614.683 131.923Z" fill="#D9E6FF"/>
<mask id="mask1_3121_14345" style="mask-type:luminance" maskUnits="userSpaceOnUse" x="592" y="86" width="89" height="39">
<path d="M680.578 86.3364H592.352V124.313H680.578V86.3364Z" fill="white"/>
</mask>
<g mask="url(#mask1_3121_14345)">
<path fill-rule="evenodd" clip-rule="evenodd" d="M667.027 100.145C668.455 100.145 669.622 98.9798 669.622 97.5556C669.622 96.1316 668.455 94.9663 667.027 94.9663C665.6 94.9663 664.432 96.1316 664.432 97.5556C664.432 98.9798 665.6 100.145 667.027 100.145ZM667.027 102.734C665.6 102.734 664.432 103.899 664.432 105.324C664.432 106.748 665.6 107.913 667.027 107.913C668.455 107.913 669.622 106.748 669.622 105.324C669.622 103.899 668.455 102.734 667.027 102.734ZM667.027 110.502C665.6 110.502 664.432 111.668 664.432 113.092C664.432 114.516 665.6 115.681 667.027 115.681C668.455 115.681 669.622 114.516 669.622 113.092C669.622 111.668 668.455 110.502 667.027 110.502Z" fill="#5F6368"/>
<mask id="mask2_3121_14345" style="mask-type:luminance" maskUnits="userSpaceOnUse" x="601" y="91" width="28" height="28">
<path d="M628.312 91.123H601.054V118.323H628.312V91.123Z" fill="white"/>
</mask>
<g mask="url(#mask2_3121_14345)">
<path d="M606.624 97.5547L614.599 93.479L617.909 95.7342L618.783 100.625L613.512 103.397C612.376 103.996 611.065 104.087 609.867 103.649C608.669 103.211 607.68 102.28 607.12 101.06C607.059 100.924 607.003 100.788 606.953 100.647C606.671 99.8642 606.413 99.1524 606.225 98.647C606.149 98.4446 606.146 98.2181 606.221 98.0145C606.296 97.8109 606.44 97.6462 606.624 97.5547Z" fill="url(#paint0_linear_3121_14345)"/>
<path d="M622.401 112.614L614.316 116.456L611.047 114.114L610.294 109.223L615.651 106.593C616.22 106.312 616.837 106.154 617.462 106.129C618.089 106.104 618.713 106.212 619.301 106.446C619.888 106.681 620.428 107.038 620.887 107.497C621.346 107.956 621.717 108.507 621.977 109.12C622.037 109.256 622.088 109.392 622.14 109.533C622.397 110.326 622.644 111.049 622.812 111.554C622.877 111.754 622.873 111.973 622.797 112.169C622.722 112.365 622.58 112.524 622.401 112.614Z" fill="url(#paint1_linear_3121_14345)"/>
<path d="M604.735 113.521L601.066 93.458C601.033 93.27 601.066 93.0752 601.16 92.9123C601.254 92.7493 601.4 92.6299 601.572 92.5777L602.583 92.2516C603.975 91.7995 605.478 91.9599 606.76 92.6975C608.043 93.435 609.001 94.6897 609.425 96.1861C609.478 96.3642 609.522 96.5456 609.556 96.7294L612.588 113.081C612.855 114.36 613.459 115.529 614.326 116.45L612.952 117.124C612.211 117.589 611.381 117.865 610.526 117.931C609.67 117.996 608.812 117.849 608.018 117.5C607.224 117.152 606.514 116.612 605.945 115.922C605.376 115.232 604.961 114.411 604.735 113.521Z" fill="url(#paint2_linear_3121_14345)"/>
<path d="M624.26 96.1428L628.43 116.092C628.469 116.279 628.443 116.475 628.355 116.642C628.267 116.809 628.124 116.935 627.954 116.994L626.944 117.353C625.562 117.845 624.055 117.728 622.753 117.027C621.451 116.326 620.462 115.099 620 113.614C619.944 113.436 619.896 113.254 619.859 113.071L616.403 96.8112C616.105 95.54 615.472 94.3875 614.583 93.4909L615.927 92.7736C616.658 92.282 617.484 91.9783 618.34 91.886C619.197 91.7936 620.062 91.9151 620.869 92.2412C621.675 92.5672 622.401 93.0887 622.989 93.7655C623.577 94.4422 624.012 95.2558 624.26 96.1428Z" fill="url(#paint3_linear_3121_14345)"/>
</g>
</g>
<mask id="mask3_3121_14345" style="mask-type:luminance" maskUnits="userSpaceOnUse" x="231" y="81" width="334" height="49">
<path d="M564.673 81.1567H231.812V129.491H564.673V81.1567Z" fill="white"/>
</mask>
<g mask="url(#mask3_3121_14345)">
<path d="M540.454 81.1567H256.031C242.655 81.1567 231.812 91.9767 231.812 105.324C231.812 118.671 242.655 129.491 256.031 129.491H540.454C553.83 129.491 564.673 118.671 564.673 105.324C564.673 91.9767 553.83 81.1567 540.454 81.1567Z" fill="#F1F3F4"/>
<path fill-rule="evenodd" clip-rule="evenodd" d="M542.811 101.593L536.94 101.084L534.648 95.6991C534.236 94.7188 532.828 94.7188 532.417 95.6991L530.124 101.097L524.267 101.593C523.199 101.677 522.763 103.009 523.576 103.71L528.027 107.559L526.693 113.271C526.45 114.312 527.577 115.135 528.5 114.578L533.533 111.552L538.565 114.59C539.488 115.147 540.615 114.324 540.372 113.283L539.038 107.559L543.489 103.71C544.302 103.009 543.878 101.677 542.811 101.593ZM533.532 109.29L528.973 112.037L530.184 106.857L526.158 103.372L531.471 102.912L533.532 98.0353L535.606 102.924L540.919 103.384L536.891 106.87L538.104 112.049L533.532 109.29Z" fill="#5F6368"/>
<path fill-rule="evenodd" clip-rule="evenodd" d="M266.41 101.872H265.546V100.146C265.546 97.7635 263.608 95.8301 261.221 95.8301C258.833 95.8301 256.895 97.7635 256.895 100.146V101.872H256.031C255.08 101.872 254.3 102.649 254.3 103.598V112.229C254.3 113.179 255.08 113.955 256.031 113.955H266.41C267.363 113.955 268.141 113.179 268.141 112.229V103.598C268.141 102.649 267.363 101.872 266.41 101.872ZM258.626 101.872V100.145C258.626 98.7127 259.785 97.5561 261.221 97.5561C262.656 97.5561 263.815 98.7127 263.815 100.145V101.872H258.626Z" fill="#5F6368"/>
</g>
<mask id="mask4_3121_14345" style="mask-type:luminance" maskUnits="userSpaceOnUse" x="20" y="91" width="190" height="29">
<path d="M209.323 91.5132H20.7593V119.133H209.323V91.5132Z" fill="white"/>
</mask>
<g mask="url(#mask4_3121_14345)">
<path fill-rule="evenodd" clip-rule="evenodd" d="M195.484 94.9797C195.168 94.9363 194.835 95.0273 194.58 95.2576L185.469 103.486C185.013 103.898 184.976 104.6 185.386 105.057C185.8 105.518 186.511 105.555 186.97 105.14L187.654 104.522V113.445V113.955C187.654 114.909 188.428 115.682 189.384 115.682H189.882H201.03H201.53C202.486 115.682 203.26 114.909 203.26 113.955V113.445V104.473L203.998 105.14C204.458 105.555 205.168 105.518 205.581 105.057C205.991 104.6 205.954 103.898 205.498 103.486L196.386 95.2576C196.131 95.0273 195.799 94.9363 195.484 94.9797ZM189.882 102.509V103.991V105.645V105.718V109.993V112.229V112.302V113.445H191.037H191.113H193.343H197.571H199.801H199.877H201.03V112.302V112.229V109.993V105.718V105.645V103.991V102.46L195.484 97.4511L189.882 102.509Z" fill="#5F6368"/>
<path fill-rule="evenodd" clip-rule="evenodd" d="M152.23 102.443V96.3551C152.23 95.8372 151.609 95.5841 151.25 95.9524L149.198 98.0008C147.11 95.9179 144.134 94.7209 140.882 95.0087C136.05 95.4459 132.071 99.3243 131.541 104.146C130.849 110.384 135.727 115.677 141.851 115.677C147.145 115.677 151.516 111.718 152.15 106.609C152.23 105.918 151.689 105.32 150.997 105.32C150.42 105.32 149.936 105.746 149.867 106.31C149.371 110.326 145.899 113.433 141.736 113.376C137.457 113.318 133.847 109.716 133.778 105.435C133.709 100.947 137.365 97.2643 141.851 97.2643C144.077 97.2643 146.096 98.1734 147.559 99.6235L145.15 102.029C144.78 102.397 145.034 103.018 145.553 103.018H151.654C151.977 103.018 152.23 102.765 152.23 102.443Z" fill="#5F6368"/>
<path fill-rule="evenodd" clip-rule="evenodd" d="M79.1794 106.389H94.0602L87.559 112.876C87.0395 113.394 87.0395 114.245 87.559 114.764C88.0786 115.282 88.9179 115.282 89.4376 114.764L98.2168 106.003C98.7363 105.485 98.7363 104.647 98.2168 104.129L89.4508 95.3551C88.9312 94.8367 88.0919 94.8367 87.5724 95.3551C87.0528 95.8736 87.0528 96.7111 87.5724 97.2296L94.0602 103.73H79.1794C78.4467 103.73 77.8472 104.328 77.8472 105.059C77.8472 105.791 78.4467 106.389 79.1794 106.389Z" fill="#BABCBE"/>
<path fill-rule="evenodd" clip-rule="evenodd" d="M43.6464 103.73H28.7654L35.2666 97.2428C35.7862 96.7244 35.7862 95.8736 35.2666 95.3551C34.7471 94.8367 33.9078 94.8367 33.3882 95.3551L24.6089 104.116C24.0894 104.634 24.0894 105.471 24.6089 105.99L33.3882 114.75C33.9078 115.269 34.7471 115.269 35.2666 114.75C35.7862 114.232 35.7862 113.394 35.2666 112.876L28.7654 106.389H43.6464C44.3791 106.389 44.9785 105.791 44.9785 105.059C44.9785 104.328 44.3791 103.73 43.6464 103.73Z" fill="#5F6368"/>
</g>
</g>
<mask id="mask5_3121_14345" style="mask-type:luminance" maskUnits="userSpaceOnUse" x="0" y="0" width="705" height="73">
<path d="M704.392 0H0V72.5247H704.392V0Z" fill="white"/>
</mask>
<g mask="url(#mask5_3121_14345)">
<path d="M0 13.8097C0 6.1828 6.19616 0 13.8395 0H690.551C698.196 0 704.392 6.18282 704.392 13.8097V72.5247H0V13.8097Z" fill="#DEE1E6"/>
<path fill-rule="evenodd" clip-rule="evenodd" d="M128.016 73.9235C130.411 72.2988 136 71.4865 138.395 60.1138V73.9235H128.016Z" fill="white"/>
<path d="M138.395 29.0407C138.395 21.4138 144.592 15.231 152.236 15.231H287.301C294.944 15.231 301.14 21.4138 301.14 29.0407V73.9223H138.395V29.0407Z" fill="white"/>
<path d="M165.291 51.5286H163.334L155.905 40.1801V51.5286H153.949V36.8019H155.905L163.354 48.2009V36.8019H165.291V51.5286ZM173.35 51.7309C171.865 51.7309 170.654 51.2453 169.722 50.2744C168.79 49.2966 168.324 47.9918 168.324 46.3601V46.0161C168.324 44.9306 168.529 43.963 168.941 43.1134C169.361 42.257 169.941 41.5893 170.684 41.1106C171.435 40.6251 172.246 40.3823 173.117 40.3823C174.543 40.3823 175.652 40.851 176.443 41.7883C177.233 42.7256 177.628 44.0674 177.628 45.8139V46.5927H170.198C170.225 47.6715 170.54 48.5448 171.141 49.2124C171.749 49.8732 172.52 50.2036 173.452 50.2036C174.115 50.2036 174.675 50.0687 175.134 49.799C175.593 49.5293 175.996 49.1719 176.34 48.7269L177.487 49.6169C176.567 51.0263 175.189 51.7309 173.35 51.7309ZM173.117 41.9198C172.361 41.9198 171.725 42.1963 171.212 42.7492C170.698 43.2953 170.38 44.064 170.259 45.0553H175.753V44.9137C175.698 43.963 175.442 43.2279 174.983 42.7088C174.524 42.1827 173.901 41.9198 173.117 41.9198ZM189.863 48.9494L191.972 40.5847H193.847L190.655 51.5286H189.134L186.468 43.2347L183.873 51.5286H182.354L179.17 40.5847H181.036L183.195 48.7775L185.749 40.5847H187.259L189.863 48.9494ZM204.148 37.9346V40.5847H206.197V42.0311H204.148V48.8179C204.148 49.2562 204.24 49.5866 204.422 49.8092C204.605 50.0249 204.916 50.1327 205.355 50.1327C205.571 50.1327 205.868 50.0923 206.247 50.0114V51.5286C205.754 51.6634 205.274 51.7309 204.808 51.7309C203.97 51.7309 203.337 51.478 202.912 50.9723C202.487 50.4666 202.274 49.7484 202.274 48.8179V42.0311H200.276V40.5847H202.274V37.9346H204.148ZM215.512 51.5286C215.405 51.3128 215.318 50.9285 215.249 50.3755C214.379 51.2791 213.337 51.7309 212.127 51.7309C211.046 51.7309 210.158 51.4275 209.461 50.8206C208.773 50.207 208.428 49.4315 208.428 48.4942C208.428 47.3547 208.86 46.4713 209.725 45.8442C210.596 45.2103 211.82 44.8935 213.394 44.8935H215.219V44.0337C215.219 43.3797 215.023 42.8604 214.631 42.4761C214.239 42.0849 213.662 41.8895 212.898 41.8895C212.229 41.8895 211.668 42.058 211.215 42.3951C210.763 42.7323 210.536 43.1403 210.536 43.619H208.651C208.651 43.0728 208.844 42.5469 209.228 42.0411C209.621 41.5287 210.148 41.1241 210.81 40.8275C211.478 40.5307 212.211 40.3823 213.01 40.3823C214.274 40.3823 215.263 40.6994 215.98 41.3331C216.695 41.9602 217.068 42.8267 217.095 43.9326V48.9697C217.095 49.9743 217.223 50.7734 217.479 51.3668V51.5286H215.512ZM212.401 50.1024C212.99 50.1024 213.547 49.9508 214.073 49.6473C214.601 49.3438 214.982 48.9494 215.219 48.4639V46.2185H213.749C211.452 46.2185 210.303 46.8894 210.303 48.2313C210.303 48.8179 210.5 49.2765 210.891 49.6068C211.283 49.9373 211.786 50.1024 212.401 50.1024ZM229.665 46.178C229.665 47.8502 229.279 49.1956 228.509 50.2136C227.739 51.2252 226.705 51.7309 225.407 51.7309C224.023 51.7309 222.951 51.2421 222.195 50.2642L222.104 51.5286H220.38V35.9927H222.255V41.7883C223.011 40.851 224.057 40.3823 225.387 40.3823C226.719 40.3823 227.763 40.8847 228.519 41.8895C229.284 42.8941 229.665 44.2698 229.665 46.0161V46.178ZM227.79 45.9656C227.79 44.6912 227.543 43.7067 227.05 43.0122C226.556 42.3176 225.846 41.9704 224.921 41.9704C223.685 41.9704 222.796 42.5435 222.255 43.6899V48.4235C222.83 49.5697 223.726 50.1429 224.941 50.1429C225.839 50.1429 226.54 49.7956 227.04 49.1012C227.539 48.4066 227.79 47.3615 227.79 45.9656Z" fill="#494C4F"/>
<path fill-rule="evenodd" clip-rule="evenodd" d="M277.931 38.401C277.548 38.0181 276.928 38.0181 276.544 38.401L271.732 43.1927L266.92 38.3912C266.536 38.0083 265.917 38.0083 265.532 38.3912C265.148 38.7741 265.148 39.3927 265.532 39.7757L270.345 44.5773L265.532 49.3788C265.148 49.7618 265.148 50.3805 265.532 50.7634C265.917 51.1463 266.536 51.1463 266.92 50.7634L271.732 45.9618L276.544 50.7634C276.928 51.1463 277.548 51.1463 277.931 50.7634C278.315 50.3805 278.315 49.7618 277.931 49.3788L273.12 44.5773L277.931 39.7757C278.306 39.4025 278.306 38.7741 277.931 38.401Z" fill="#3C4043"/>
<path fill-rule="evenodd" clip-rule="evenodd" d="M311.52 73.9235C309.124 72.2988 303.536 71.4865 301.14 60.1138V73.9235H311.52Z" fill="white"/>
<path fill-rule="evenodd" clip-rule="evenodd" d="M352.545 46.2225H344.307V54.4424C344.307 55.3467 343.566 56.0865 342.66 56.0865C341.753 56.0865 341.012 55.3467 341.012 54.4424V46.2225H332.774C331.868 46.2225 331.126 45.4826 331.126 44.5784C331.126 43.6742 331.868 42.9344 332.774 42.9344H341.012V34.7143C341.012 33.8102 341.753 33.0703 342.66 33.0703C343.566 33.0703 344.307 33.8102 344.307 34.7143V42.9344H352.545C353.451 42.9344 354.193 43.6742 354.193 44.5784C354.193 45.4826 353.451 46.2225 352.545 46.2225Z" fill="#3C4043"/>
<mask id="mask6_3121_14345" style="mask-type:luminance" maskUnits="userSpaceOnUse" x="22" y="28" width="91" height="21">
<path d="M112.446 28.1777H22.4893V48.8923H112.446V28.1777Z" fill="white"/>
</mask>
<g mask="url(#mask6_3121_14345)">
<path d="M102.067 48.4608C107.56 48.4608 112.014 44.0169 112.014 38.5351C112.014 33.0533 107.56 28.6094 102.067 28.6094C96.5731 28.6094 92.1196 33.0533 92.1196 38.5351C92.1196 44.0169 96.5731 48.4608 102.067 48.4608Z" fill="#27CA40" stroke="#3EAF3F" stroke-width="0.634638"/>
<path d="M67.4681 48.4608C72.9618 48.4608 77.4153 44.0169 77.4153 38.5351C77.4153 33.0533 72.9618 28.6094 67.4681 28.6094C61.9745 28.6094 57.521 33.0533 57.521 38.5351C57.521 44.0169 61.9745 48.4608 67.4681 48.4608Z" fill="#FFC130" stroke="#E1A325" stroke-width="0.634638"/>
<path d="M32.869 48.4608C38.3627 48.4608 42.8162 44.0169 42.8162 38.5351C42.8162 33.0533 38.3627 28.6094 32.869 28.6094C27.3754 28.6094 22.9219 33.0533 22.9219 38.5351C22.9219 44.0169 27.3754 48.4608 32.869 48.4608Z" fill="#FF6058" stroke="#E14942" stroke-width="0.634638"/>
</g>
</g>
<g filter="url(#filter1_d_3121_14345)">
<path d="M619.219 151.709C618.615 150.934 617.86 149.364 616.544 147.406C615.79 146.33 613.936 144.286 613.376 143.232C612.971 142.591 612.854 141.811 613.051 141.08C613.39 139.69 614.712 138.769 616.135 138.929C617.236 139.15 618.249 139.688 619.046 140.478C619.603 141 620.115 141.569 620.578 142.177C620.922 142.608 621.008 142.78 621.397 143.275C621.785 143.77 622.044 144.264 621.849 143.533C621.698 142.457 621.439 140.65 621.074 139.036C620.793 137.809 620.728 137.616 620.469 136.691C620.211 135.765 620.06 134.991 619.779 133.937C619.523 132.901 619.322 131.852 619.175 130.795C618.904 129.443 619.102 128.039 619.737 126.815C620.489 126.107 621.595 125.921 622.54 126.341C623.489 127.041 624.198 128.019 624.566 129.138C625.131 130.516 625.508 131.964 625.688 133.442C626.033 135.593 626.702 138.735 626.722 139.38C626.722 138.584 626.571 136.906 626.722 136.152C626.872 135.368 627.419 134.716 628.167 134.431C628.809 134.235 629.489 134.191 630.151 134.302C630.82 134.442 631.412 134.825 631.812 135.378C632.311 136.634 632.588 137.966 632.631 139.316C632.688 138.133 632.891 136.963 633.235 135.83C633.595 135.323 634.121 134.958 634.723 134.797C635.435 134.667 636.166 134.667 636.879 134.797C637.463 134.992 637.974 135.36 638.345 135.852C638.802 136.993 639.078 138.197 639.164 139.424C639.164 139.724 639.315 138.584 639.789 137.831C640.036 137.101 640.655 136.558 641.412 136.405C642.168 136.253 642.95 136.515 643.46 137.094C643.971 137.672 644.134 138.478 643.887 139.208C643.887 140.606 643.887 140.542 643.887 141.489C643.887 142.435 643.887 143.275 643.887 144.07C643.808 145.331 643.635 146.581 643.369 147.815C642.993 148.906 642.472 149.941 641.817 150.892C640.77 152.054 639.905 153.366 639.251 154.786C639.088 155.491 639.016 156.214 639.036 156.938C639.033 157.606 639.119 158.272 639.293 158.918C638.412 159.01 637.523 159.01 636.641 158.918C635.801 158.788 634.765 157.11 634.486 156.594C634.346 156.316 634.063 156.141 633.752 156.141C633.442 156.141 633.157 156.316 633.019 156.594C632.545 157.411 631.488 158.896 630.755 158.982C629.31 159.154 626.334 158.982 623.984 158.982C623.984 158.982 624.373 156.83 623.488 156.055C622.604 155.281 621.698 154.378 621.03 153.775L619.219 151.709Z" fill="white"/>
<path fill-rule="evenodd" clip-rule="evenodd" d="M619.219 151.709C618.615 150.934 617.86 149.364 616.544 147.406C615.79 146.33 613.936 144.286 613.376 143.232C612.971 142.591 612.854 141.811 613.051 141.08C613.39 139.69 614.712 138.769 616.135 138.929C617.236 139.15 618.249 139.688 619.046 140.478C619.603 141 620.115 141.569 620.578 142.177C620.922 142.608 621.008 142.78 621.397 143.275C621.785 143.77 622.044 144.264 621.849 143.533C621.698 142.457 621.439 140.65 621.074 139.036C620.793 137.809 620.728 137.616 620.469 136.691C620.211 135.765 620.06 134.991 619.779 133.937C619.523 132.901 619.322 131.852 619.175 130.795C618.904 129.443 619.102 128.039 619.737 126.815C620.489 126.107 621.595 125.921 622.54 126.341C623.489 127.041 624.198 128.019 624.566 129.138C625.131 130.516 625.508 131.964 625.688 133.442C626.033 135.593 626.702 138.735 626.722 139.38C626.722 138.584 626.571 136.906 626.722 136.152C626.872 135.368 627.419 134.716 628.167 134.431C628.809 134.235 629.489 134.191 630.151 134.302C630.82 134.442 631.412 134.825 631.812 135.378C632.311 136.634 632.588 137.966 632.631 139.316C632.688 138.133 632.891 136.963 633.235 135.83C633.595 135.323 634.121 134.958 634.723 134.797C635.435 134.667 636.166 134.667 636.879 134.797C637.463 134.992 637.974 135.36 638.345 135.852C638.802 136.993 639.078 138.197 639.164 139.424C639.164 139.724 639.315 138.584 639.789 137.831C640.036 137.101 640.655 136.558 641.412 136.405C642.168 136.253 642.95 136.515 643.46 137.094C643.971 137.672 644.134 138.478 643.887 139.208C643.887 140.606 643.887 140.542 643.887 141.489C643.887 142.435 643.887 143.275 643.887 144.07C643.808 145.331 643.635 146.581 643.369 147.815C642.993 148.906 642.472 149.941 641.817 150.892C640.77 152.054 639.905 153.366 639.251 154.786C639.088 155.491 639.016 156.214 639.036 156.938C639.033 157.606 639.119 158.272 639.293 158.918C638.412 159.01 637.523 159.01 636.641 158.918C635.801 158.788 634.765 157.11 634.486 156.594C634.346 156.316 634.063 156.141 633.752 156.141C633.442 156.141 633.157 156.316 633.019 156.594C632.545 157.411 631.488 158.896 630.755 158.982C629.31 159.154 626.334 158.982 623.984 158.982C623.984 158.982 624.373 156.83 623.488 156.055C622.604 155.281 621.698 154.378 621.03 153.775L619.219 151.709Z" stroke="black" stroke-width="1.5" stroke-linecap="round" stroke-linejoin="round"/>
<path d="M637.502 152.883V145.456C637.502 145.011 637.14 144.651 636.694 144.651C636.248 144.651 635.886 145.011 635.886 145.456V152.883C635.886 153.328 636.248 153.688 636.694 153.688C637.14 153.688 637.502 153.328 637.502 152.883Z" fill="black"/>
<path d="M633.234 152.881L633.19 145.45C633.188 145.006 632.825 144.648 632.377 144.651C631.931 144.653 631.571 145.016 631.574 145.459L631.616 152.89C631.62 153.333 631.983 153.691 632.429 153.688C632.877 153.686 633.237 153.324 633.234 152.881Z" fill="black"/>
<path d="M627.26 145.467L627.304 152.882C627.306 153.331 627.67 153.691 628.117 153.688C628.563 153.686 628.923 153.321 628.921 152.873L628.878 145.457C628.874 145.01 628.511 144.648 628.064 144.651C627.618 144.653 627.258 145.018 627.26 145.467Z" fill="black"/>
</g>
<defs>
<filter id="filter0_d_3121_14345" x="0" y="71.2571" width="704.798" height="66.8655" filterUnits="userSpaceOnUse" color-interpolation-filters="sRGB">
<feFlood flood-opacity="0" result="BackgroundImageFix"/>
<feColorMatrix in="SourceAlpha" type="matrix" values="0 0 0 0 0 0 0 0 0 0 0 0 0 0 0 0 0 0 127 0" result="hardAlpha"/>
<feOffset dy="-1.26928"/>
<feComposite in2="hardAlpha" operator="out"/>
<feColorMatrix type="matrix" values="0 0 0 0 0.854902 0 0 0 0 0.862745 0 0 0 0 0.878431 0 0 0 1 0"/>
<feBlend mode="normal" in2="BackgroundImageFix" result="effect1_dropShadow_3121_14345"/>
<feBlend mode="normal" in="SourceGraphic" in2="effect1_dropShadow_3121_14345" result="shape"/>
</filter>
<filter id="filter1_d_3121_14345" x="609.208" y="124.369" width="38.5425" height="40.4395" filterUnits="userSpaceOnUse" color-interpolation-filters="sRGB">
<feFlood flood-opacity="0" result="BackgroundImageFix"/>
<feColorMatrix in="SourceAlpha" type="matrix" values="0 0 0 0 0 0 0 0 0 0 0 0 0 0 0 0 0 0 127 0" result="hardAlpha"/>
<feOffset dy="2"/>
<feGaussianBlur stdDeviation="1.5"/>
<feComposite in2="hardAlpha" operator="out"/>
<feColorMatrix type="matrix" values="0 0 0 0 0 0 0 0 0 0 0 0 0 0 0 0 0 0 0.2 0"/>
<feBlend mode="normal" in2="BackgroundImageFix" result="effect1_dropShadow_3121_14345"/>
<feBlend mode="normal" in="SourceGraphic" in2="effect1_dropShadow_3121_14345" result="shape"/>
</filter>
<linearGradient id="paint0_linear_3121_14345" x1="624.728" y1="101.791" x2="612.424" y2="109.088" gradientUnits="userSpaceOnUse">
<stop offset="0.09" stop-color="#484FE4"/>
<stop offset="1" stop-color="#377EFF"/>
</linearGradient>
<linearGradient id="paint1_linear_3121_14345" x1="610.251" y1="118.117" x2="622.769" y2="111.196" gradientUnits="userSpaceOnUse">
<stop offset="0.23" stop-color="#5E64FF"/>
<stop offset="1" stop-color="#985CD0"/>
</linearGradient>
<linearGradient id="paint2_linear_3121_14345" x1="603.676" y1="92.9354" x2="610.397" y2="118.228" gradientUnits="userSpaceOnUse">
<stop stop-color="#6F64FF"/>
<stop offset="1" stop-color="#CA5CD0"/>
</linearGradient>
<linearGradient id="paint3_linear_3121_14345" x1="628.454" y1="120.992" x2="617.302" y2="95.4926" gradientUnits="userSpaceOnUse">
<stop offset="0.09" stop-color="#484FE4"/>
<stop offset="1" stop-color="#00E8FF"/>
</linearGradient>
</defs>
</svg>
